<svg width="41" height="21" viewBox="0 0 41 21" fill="none" xmlns="http://www.w3.org/2000/svg">
<g opacity="0.85">
<path d="M1.03937 13.4082C0.667872 13.304 0.316561 13.1387 -1.62277e-06 12.9193C1.47699 15.0514 8.31491 20.2799 19.5975 20.3885C32.6443 20.4972 38.0736 12.5934 36.5145 6.80814C36.4881 6.664 36.4468 6.52294 36.3914 6.38715C11.1185 18.6095 1.03937 13.4082 1.03937 13.4082Z" fill="url(#paint0_linear_1_2419)"/>
<path d="M16.0144 5.64015C5.93528 13.8699 0.369204 12.9871 0.0136321 12.9192C0.330195 13.1386 0.681505 13.3039 1.053 13.4081C1.053 13.4081 11.1184 18.6094 36.3777 6.33275C34.4904 0.167251 27.4337 -3.66242 16.0144 5.64015Z" fill="url(#paint1_linear_1_2419)"/>
<path d="M27.844 17.17L28.2543 16.8712L28.6919 16.491L28.9655 16.2601L29.2526 15.9885L29.5535 15.6897L29.8681 15.3502C30.0869 15.1194 30.3057 14.8613 30.5108 14.6033C30.716 14.3453 30.9348 14.0465 31.1399 13.7477C31.345 13.449 31.3451 13.449 31.4408 13.2996C31.5365 13.1502 31.6459 12.9872 31.728 12.8379C31.81 12.6885 32.0972 12.1996 32.2613 11.8872C32.4254 11.5749 32.5759 11.2354 32.7126 10.9366C32.8494 10.6378 32.9862 10.3119 33.0956 10.0267C33.205 9.74153 33.3007 9.44276 33.3828 9.18473C33.5605 8.66867 33.6699 8.2341 33.752 7.92175C33.7717 7.80242 33.7991 7.68448 33.8341 7.56866V7.44644C33.8486 7.3636 33.8956 7.28987 33.9649 7.24148C34.0341 7.19309 34.1199 7.17401 34.2033 7.18841C34.2867 7.20282 34.361 7.24954 34.4097 7.31831C34.4584 7.38707 34.4777 7.47224 34.4631 7.55508V7.69089C34.4631 7.78595 34.4631 7.90817 34.3674 8.07114C34.2717 8.2341 34.1349 8.83164 33.9435 9.42918L33.6016 10.2712C33.4785 10.5563 33.328 10.8687 33.1776 11.181C33.0272 11.4934 32.8494 11.8193 32.6716 12.1317C32.4938 12.444 32.2887 12.77 32.0835 13.0823C31.8784 13.3947 31.8784 13.3947 31.769 13.5576L31.4408 13.9922C31.222 14.291 30.9895 14.5761 30.7707 14.8342C30.5519 15.0922 30.3057 15.3502 30.0869 15.5811L29.745 15.907L29.4168 16.1922L29.1159 16.4502L28.8424 16.6811L28.3637 17.0478L27.9534 17.333H27.8577C27.8359 17.3348 27.8144 17.3279 27.7977 17.3139C27.781 17.2999 27.7706 17.2799 27.7688 17.2583C27.767 17.2367 27.7739 17.2152 27.788 17.1987C27.8021 17.1821 27.8223 17.1718 27.844 17.17Z" fill="url(#paint2_linear_1_2419)"/>
<path d="M23.0373 17.1811L23.4275 16.9532L23.8436 16.6631L24.1037 16.4869L24.3768 16.2797L24.6629 16.0518L24.962 15.7928C25.17 15.6166 25.3781 15.4198 25.5732 15.2229C25.7682 15.026 25.9763 14.7981 26.1714 14.5702C26.3664 14.3422 26.3664 14.3422 26.4575 14.2282C26.5485 14.1143 26.6525 13.9899 26.7305 13.876C26.8086 13.762 27.0817 13.389 27.2377 13.1507C27.3938 12.9124 27.5368 12.6534 27.6668 12.4254C27.7969 12.1975 27.9269 11.9488 28.031 11.7313C28.135 11.5137 28.226 11.2857 28.3041 11.0889C28.4731 10.6952 28.5771 10.3636 28.6552 10.1253C28.6739 10.0343 28.6999 9.94429 28.7332 9.85593V9.76268C28.747 9.69948 28.7917 9.64323 28.8576 9.60631C28.9234 9.56939 29.005 9.55483 29.0843 9.56582C29.1636 9.57681 29.2342 9.61246 29.2806 9.66492C29.3269 9.71739 29.3452 9.78236 29.3314 9.84556V9.94918C29.3314 10.0217 29.3314 10.115 29.2404 10.2393C29.1493 10.3636 29.0193 10.8195 28.8372 11.2754L28.5121 11.9178C28.3951 12.1353 28.252 12.3736 28.109 12.6119C27.9659 12.8502 27.7969 13.0989 27.6278 13.3372C27.4588 13.5755 27.2637 13.8242 27.0687 14.0625C26.8736 14.3008 26.8736 14.3008 26.7696 14.4251L26.4575 14.7567C26.2494 14.9846 26.0283 15.2022 25.8203 15.399C25.6122 15.5959 25.3781 15.7927 25.17 15.9689L24.8449 16.2175L24.5328 16.4351L24.2467 16.632L23.9867 16.8081L23.5315 17.0879L23.1414 17.3054H23.0504C23.0297 17.3068 23.0091 17.3016 22.9933 17.2909C22.9774 17.2802 22.9675 17.265 22.9658 17.2485C22.9641 17.232 22.9707 17.2156 22.9841 17.203C22.9975 17.1904 23.0166 17.1825 23.0373 17.1811Z" fill="url(#paint3_linear_1_2419)"/>
<path d="M21.2113 12.4984L21.1292 12.5798L20.8831 12.8107L20.5138 13.1502L20.0078 13.5848C19.8164 13.7342 19.6249 13.9107 19.4061 14.0737L18.7086 14.6033L17.9428 15.133L17.1359 15.649C16.8487 15.812 16.5752 15.9885 16.3017 16.1243L15.8777 16.3552L15.4674 16.5453L15.0708 16.7354L14.6743 16.8984C14.438 17.0064 14.196 17.1016 13.9494 17.1836L13.3477 17.3873L12.8554 17.5095L12.4314 17.6182V17.4959L12.8417 17.3601L13.3203 17.2108L13.9221 16.9799C14.1546 16.8984 14.3734 16.7762 14.6332 16.6675L15.0025 16.491L15.3854 16.2737L15.782 16.07L16.1786 15.8256C16.4521 15.6762 16.712 15.486 16.9855 15.3231L17.7513 14.7663L18.4761 14.2095C18.6949 14.0194 18.9274 13.8428 19.1189 13.6663L19.6933 13.1502C19.8711 13.0008 20.0215 12.8379 20.1583 12.7156L20.5138 12.3625L20.719 12.1317L20.801 12.0502C20.8303 12.0202 20.8654 11.9964 20.9042 11.9801C20.9429 11.9638 20.9846 11.9555 21.0267 11.9555C21.0688 11.9555 21.1104 11.9638 21.1492 11.9801C21.1879 11.9964 21.223 12.0202 21.2523 12.0502C21.3071 12.1122 21.3374 12.1918 21.3374 12.2743C21.3374 12.3567 21.3071 12.4364 21.2523 12.4984H21.2113Z" fill="url(#paint4_linear_1_2419)"/>
<path d="M25.3206 11.4076L25.2676 11.5022L25.1058 11.7727L24.8616 12.1718L24.5206 12.6887C24.3884 12.8696 24.2619 13.077 24.1091 13.2761L23.6245 13.9208L23.0814 14.5779L22.5003 15.2291C22.2892 15.4407 22.0926 15.663 21.8874 15.8455L21.5736 16.1483L21.263 16.4088L20.9641 16.6668L20.6594 16.8982C20.4802 17.0467 20.2935 17.1838 20.1 17.3088L19.6286 17.6173L19.2336 17.8263L18.8941 18.0096L18.8685 17.89L19.1905 17.6827L19.5681 17.4496L20.0338 17.1145C20.2153 16.9926 20.3766 16.8333 20.5758 16.6799L20.8543 16.4401L21.1358 16.1581L21.4319 15.8868L21.7194 15.5757C21.9217 15.3799 22.1038 15.1468 22.3033 14.9377L22.8407 14.2541L23.343 13.5779C23.49 13.3522 23.6516 13.1373 23.7781 12.9299L24.1604 12.3209C24.2809 12.1425 24.3752 11.9558 24.4664 11.8114L24.696 11.4015L24.8228 11.1385L24.8758 11.0439C24.8945 11.0093 24.9195 10.9796 24.9492 10.9566C24.9789 10.9337 25.0127 10.9179 25.0487 10.9102C25.0847 10.9026 25.122 10.9032 25.1586 10.9121C25.1951 10.921 25.2301 10.9379 25.2614 10.9619C25.3213 11.0125 25.3639 11.0849 25.3812 11.1656C25.3986 11.2462 25.3895 11.3296 25.3557 11.4001L25.3206 11.4076Z" fill="url(#paint5_linear_1_2419)"/>
<path d="M8.71166 16.301H9.03988H9.40914L9.88779 16.2331L10.4485 16.0973C10.6575 16.0415 10.863 15.9735 11.0639 15.8936L11.7067 15.6491L12.3631 15.3503C13.1608 14.9821 13.937 14.5695 14.688 14.1145C15.0026 13.938 15.2487 13.775 15.4265 13.6664L15.7 13.4898C15.7727 13.4435 15.8608 13.4275 15.9453 13.4453C16.0298 13.4631 16.1038 13.5133 16.1513 13.5849C16.1741 13.6196 16.1896 13.6584 16.1971 13.6991C16.2046 13.7398 16.2039 13.7816 16.195 13.8221C16.1861 13.8625 16.1692 13.9008 16.1453 13.9347C16.1213 13.9685 16.0908 13.9974 16.0556 14.0195L15.7547 14.1824L14.9752 14.6034C14.3188 14.9294 13.4435 15.3503 12.5272 15.7034L11.8434 15.9615L11.1733 16.1652L10.5306 16.3281C10.3367 16.375 10.1404 16.4112 9.94249 16.4368H9.43648C9.30437 16.4436 9.17199 16.4436 9.03988 16.4368H8.79372H8.71166V16.301Z" fill="url(#paint6_linear_1_2419)"/>
<path d="M33.9573 7.74525L33.5743 7.40574L32.4939 6.52301C31.4077 5.67734 30.2552 4.91897 29.0476 4.25509C28.7194 4.06496 28.3912 3.902 28.063 3.73903L27.557 3.50816L27.0646 3.29088C26.7364 3.16865 26.4219 3.04643 26.1073 2.95136L25.2457 2.70692L24.8491 2.61185H24.4799H24.1654H23.8918H23.5226H23.3722V2.48963H24.1654H24.4936H24.8628L25.2731 2.57112C25.5466 2.57112 25.8612 2.69334 26.1757 2.7884C26.4902 2.88346 26.8185 2.97853 27.1604 3.10075L27.6664 3.29088L28.1861 3.49458C28.5279 3.65755 28.8835 3.80693 29.2254 3.98348C30.4746 4.61454 31.6726 5.34102 32.8085 6.15634C33.2735 6.48227 33.6564 6.78104 33.9162 6.98475L34.2171 7.22919L34.3265 7.31068C34.3842 7.37121 34.4164 7.45139 34.4164 7.53475C34.4164 7.61811 34.3842 7.6983 34.3265 7.75883C34.2984 7.78842 34.2645 7.812 34.2268 7.82811C34.1892 7.84423 34.1487 7.85254 34.1077 7.85254C34.0667 7.85254 34.0262 7.84423 33.9885 7.82811C33.9509 7.812 33.917 7.78842 33.8889 7.75883L33.9573 7.74525Z" fill="url(#paint7_linear_1_2419)"/>
<path d="M30.2922 9.17115L29.9093 8.89954C29.6631 8.72299 29.3076 8.47855 28.8699 8.20694C27.8075 7.50918 26.7072 6.86994 25.574 6.29211C25.2732 6.12914 24.9586 5.97975 24.6441 5.84395L23.7278 5.45012C23.4269 5.32789 23.1261 5.21925 22.8526 5.13777L22.4423 5.01554L22.0457 4.9069C21.8169 4.84463 21.5838 4.79924 21.3482 4.7711H21.061H20.3362H20.4593C20.5777 4.76417 20.6964 4.76417 20.8149 4.7711H21.0747H21.3756C21.5944 4.7711 21.8269 4.7711 22.0867 4.87974L22.497 4.9748L22.9209 4.9069C23.2267 4.98058 23.528 5.07125 23.8235 5.17851L24.7809 5.5316L25.7382 5.9526C26.9099 6.48267 28.0513 7.07658 29.1571 7.73162L30.2512 8.39707L30.6615 8.65509C30.7276 8.70403 30.7728 8.77592 30.788 8.85645C30.8033 8.93698 30.7874 9.02025 30.7435 9.08966C30.7261 9.12921 30.7005 9.16474 30.6685 9.19399C30.6366 9.22325 30.5988 9.24561 30.5577 9.25965C30.5166 9.27369 30.473 9.2791 30.4296 9.27556C30.3863 9.27201 30.3442 9.25958 30.3059 9.23905L30.2922 9.17115Z" fill="url(#paint8_linear_1_2419)"/>
<path d="M25.656 10.8825L25.3141 10.6109L24.3705 9.90468C23.9739 9.61949 23.4952 9.30714 23.0029 8.98121L22.2097 8.49232L21.3618 8.017L20.9242 7.78614L20.4866 7.58243L19.625 7.21576L19.201 7.06638L18.7907 6.93057H18.5993H18.4078H18.2164H18.0386H17.8608H17.6967H17.3821H16.8625C16.7532 6.92256 16.6435 6.92256 16.5342 6.93057H16.4248C16.4052 6.93084 16.3862 6.92415 16.3712 6.91169C16.3561 6.89924 16.346 6.88185 16.3428 6.86267H16.4522H16.7941H17.4505H17.7651H17.9428H18.1206H18.3121H18.5036H18.7087H18.9138L19.3378 6.98489L19.7754 7.1207C20.0763 7.21576 20.3771 7.33798 20.678 7.46021L21.1293 7.65034L21.5533 7.67749L22.4422 8.11206L23.2764 8.5738C23.8235 8.88615 24.3158 9.18492 24.7397 9.45653C25.1637 9.72813 25.4919 9.959 25.7381 10.122L26.1073 10.3936C26.1741 10.4424 26.2188 10.5155 26.2316 10.5969C26.2444 10.6783 26.2243 10.7614 26.1757 10.8281C26.1133 10.8826 26.0331 10.9126 25.9501 10.9126C25.867 10.9126 25.7868 10.8826 25.7244 10.8281L25.656 10.8825Z" fill="url(#paint9_linear_1_2419)"/>
<path d="M20.7599 12.512H20.6915L20.5 12.3354C20.3223 12.1725 20.0624 11.9687 19.7342 11.7243L19.1872 11.3712C18.9843 11.2336 18.7744 11.1066 18.5581 10.991L17.8606 10.6379L17.1084 10.3391L16.7255 10.2033L16.3426 10.0811C16.0827 10.0811 15.8229 9.94527 15.5767 9.90453L14.8519 9.7823H14.51H13.6211H13.1971H12.8142V9.7144H13.1971H13.6348H14.2091H14.8793L15.6314 9.79588C15.8913 9.79588 16.1648 9.87736 16.4383 9.93168L16.8486 10.0403L17.2452 10.149C17.5146 10.2298 17.7794 10.325 18.0384 10.4342L18.8179 10.5021C19.0504 10.6243 19.2829 10.7329 19.488 10.8552L20.0761 11.2082C20.3684 11.3887 20.6514 11.5836 20.924 11.7922L21.1155 11.9552H21.1975C21.261 12.011 21.2995 12.0896 21.3047 12.1736C21.3098 12.2577 21.2811 12.3403 21.2249 12.4033C21.1686 12.4664 21.0895 12.5046 21.0049 12.5097C20.9202 12.5148 20.837 12.4863 20.7736 12.4305L20.7599 12.512Z" fill="url(#paint10_linear_1_2419)"/>
<path d="M15.659 13.8565L15.3992 13.7479L14.688 13.4627C14.1 13.2318 13.3204 12.9467 12.4999 12.6751C11.77 12.4301 11.0255 12.2306 10.2707 12.0775H9.84676H9.51853H9.24502C9.23902 12.0672 9.23586 12.0555 9.23586 12.0436C9.23586 12.0316 9.23902 12.0199 9.24502 12.0096H9.51853C9.63205 11.9954 9.74691 11.9954 9.86043 12.0096H10.2981C11.0782 12.1045 11.8505 12.2542 12.6093 12.4578C13.4298 12.6615 14.2504 12.8923 14.8658 13.0825L15.6043 13.3133L15.8778 13.3948C15.919 13.407 15.9572 13.4275 15.9901 13.4549C16.0231 13.4824 16.05 13.5162 16.0692 13.5544C16.0884 13.5926 16.0995 13.6343 16.1019 13.6769C16.1043 13.7195 16.0978 13.7622 16.0829 13.8022C16.0705 13.8416 16.0504 13.878 16.0237 13.9096C15.997 13.9411 15.9642 13.9671 15.9274 13.9861C15.8905 14.005 15.8502 14.0165 15.8088 14.0199C15.7675 14.0233 15.7258 14.0186 15.6863 14.0059L15.659 13.8565Z" fill="url(#paint11_linear_1_2419)"/>
<path d="M1.12149 13.3132H1.21723L1.53177 13.4354C1.93048 13.5758 2.33684 13.6937 2.74892 13.7885C3.28228 13.9108 3.93872 14.0194 4.70457 14.1145C5.47042 14.2095 6.33199 14.2503 7.27563 14.2639H7.98678H8.73894H9.51846H10.3117L11.1322 14.1824L11.9801 13.9922H12.4041L12.8417 13.9243L13.7033 13.8021L14.5785 13.6392L15.4675 13.4626L16.3701 13.2725L16.8214 13.1774L17.2727 13.0688L18.1753 12.8379L19.0916 12.607L19.9942 12.349L20.8968 12.0774L21.7994 11.8058L22.702 11.507L23.5909 11.2218L24.4798 10.9095C25.6423 10.4885 26.7774 10.0403 27.8851 9.61935L29.4852 8.94033L29.8818 8.77737L30.2647 8.61441L31.0169 8.2749L31.7417 7.94896L32.4529 7.63662C32.9178 7.41933 33.3555 7.20204 33.8205 7.01192L34.4495 6.71315L35.0376 6.41438L36.1317 5.87116L37.089 5.39585L37.9095 4.97486L39.3318 4.11929C39.4805 4.04185 39.6541 4.02625 39.8144 4.07591C39.9747 4.12558 40.1086 4.23644 40.1866 4.38411C40.2645 4.53178 40.2802 4.70417 40.2302 4.86334C40.1802 5.02252 40.0686 5.15545 39.9199 5.23288L38.3472 5.99339L37.5266 6.4008L36.5419 6.86253L35.4205 7.39217L34.8188 7.66378L34.176 7.94896L32.8084 8.5465L32.0836 8.85885L31.3451 9.1712L30.5793 9.48355L30.1827 9.64651L29.7861 9.7959L28.145 10.4342C27.0236 10.8416 25.8611 11.2762 24.6713 11.6564C24.3704 11.7515 24.0832 11.8601 23.7687 11.9416L22.9208 12.2268L22.0045 12.4984L21.0882 12.7564L20.172 13.0145L19.242 13.2317L18.312 13.4626L17.3958 13.6663L16.9308 13.7614L16.4795 13.8429L15.5632 14.0194C15.2623 14.0194 14.9615 14.128 14.6606 14.1688L13.7717 14.3046L12.8827 14.4268H12.4451H12.0211L11.1733 14.5083H10.339H9.53214H8.73894H7.9731H7.24828C6.37448 14.488 5.50247 14.4199 4.63619 14.3046C3.97338 14.2129 3.316 14.086 2.66687 13.9243C2.24547 13.8145 1.83008 13.683 1.42237 13.5305L1.09415 13.3947H0.98474C0.963271 13.3743 0.949103 13.3474 0.944369 13.3183C0.939639 13.2891 0.944601 13.2592 0.958518 13.2331C0.972434 13.207 0.994532 13.1861 1.02148 13.1736C1.04842 13.1611 1.07874 13.1577 1.10782 13.1638L1.12149 13.3132Z" fill="url(#paint12_linear_1_2419)"/>
<path style="mix-blend-mode:screen" d="M19.5839 20.3885C32.4939 20.4972 37.9643 12.7292 36.5967 6.90318L37.5813 6.44145L38.4019 6.03404L39.9883 5.16489C40.137 5.08745 40.2486 4.95453 40.2987 4.79535C40.3487 4.63617 40.333 4.46379 40.255 4.31612C40.177 4.16844 40.0431 4.05759 39.8828 4.00792C39.7225 3.95826 39.5489 3.97386 39.4002 4.0513L37.8685 4.85254L37.048 5.27354L36.1864 5.70811C34.0393 -0.117882 27.0783 -3.44508 16.0145 5.5723C5.93543 13.802 0.369357 12.9193 0.0137849 12.8514C1.46342 15.0514 8.30135 20.2799 19.5839 20.3885Z" fill="url(#paint13_radial_1_2419)"/>
</g>
<defs>
<linearGradient id="paint0_linear_1_2419" x1="24.7351" y1="12.378" x2="42.7509" y2="5.60162" gradientUnits="userSpaceOnUse">
<stop offset="0.08" stop-color="#B0E355"/>
<stop offset="0.21" stop-color="#ADE152"/>
<stop offset="0.32" stop-color="#A2DA4A"/>
<stop offset="0.42" stop-color="#91CE3B"/>
<stop offset="0.52" stop-color="#79BE27"/>
<stop offset="0.61" stop-color="#5AA90D"/>
<stop offset="0.65" stop-color="#4A9F00"/>
<stop offset="1" stop-color="#346D0A"/>
</linearGradient>
<linearGradient id="paint1_linear_1_2419" x1="5.27018" y1="0.410776" x2="56.5856" y2="-4.17684" gradientUnits="userSpaceOnUse">
<stop offset="0.08" stop-color="#B0E355"/>
<stop offset="0.21" stop-color="#ADE152"/>
<stop offset="0.32" stop-color="#A2DA4A"/>
<stop offset="0.42" stop-color="#91CE3B"/>
<stop offset="0.52" stop-color="#79BE27"/>
<stop offset="0.61" stop-color="#5AA90D"/>
<stop offset="0.65" stop-color="#4A9F00"/>
<stop offset="1" stop-color="#346D0A"/>
</linearGradient>
<linearGradient id="paint2_linear_1_2419" x1="11.6011" y1="-0.674232" x2="45.0364" y2="-4.54647" gradientUnits="userSpaceOnUse">
<stop offset="0.08" stop-color="#B0E355"/>
<stop offset="0.21" stop-color="#ADE152"/>
<stop offset="0.32" stop-color="#A2DA4A"/>
<stop offset="0.42" stop-color="#91CE3B"/>
<stop offset="0.52" stop-color="#79BE27"/>
<stop offset="0.61" stop-color="#5AA90D"/>
<stop offset="0.65" stop-color="#4A9F00"/>
<stop offset="1" stop-color="#346D0A"/>
</linearGradient>
<linearGradient id="paint3_linear_1_2419" x1="7.5921" y1="3.56714" x2="39.1542" y2="-0.988671" gradientUnits="userSpaceOnUse">
<stop offset="0.08" stop-color="#B0E355"/>
<stop offset="0.21" stop-color="#ADE152"/>
<stop offset="0.32" stop-color="#A2DA4A"/>
<stop offset="0.42" stop-color="#91CE3B"/>
<stop offset="0.52" stop-color="#79BE27"/>
<stop offset="0.61" stop-color="#5AA90D"/>
<stop offset="0.65" stop-color="#4A9F00"/>
<stop offset="1" stop-color="#346D0A"/>
</linearGradient>
<linearGradient id="paint4_linear_1_2419" x1="9.16317" y1="25.4009" x2="28.896" y2="10.1548" gradientUnits="userSpaceOnUse">
<stop offset="0.08" stop-color="#B0E355"/>
<stop offset="0.21" stop-color="#ADE152"/>
<stop offset="0.32" stop-color="#A2DA4A"/>
<stop offset="0.42" stop-color="#91CE3B"/>
<stop offset="0.52" stop-color="#79BE27"/>
<stop offset="0.61" stop-color="#5AA90D"/>
<stop offset="0.65" stop-color="#4A9F00"/>
<stop offset="1" stop-color="#346D0A"/>
</linearGradient>
<linearGradient id="paint5_linear_1_2419" x1="17.7374" y1="26.2142" x2="33.5432" y2="9.78666" gradientUnits="userSpaceOnUse">
<stop offset="0.08" stop-color="#B0E355"/>
<stop offset="0.21" stop-color="#ADE152"/>
<stop offset="0.32" stop-color="#A2DA4A"/>
<stop offset="0.42" stop-color="#91CE3B"/>
<stop offset="0.52" stop-color="#79BE27"/>
<stop offset="0.61" stop-color="#5AA90D"/>
<stop offset="0.65" stop-color="#4A9F00"/>
<stop offset="1" stop-color="#346D0A"/>
</linearGradient>
<linearGradient id="paint6_linear_1_2419" x1="-0.746217" y1="27.1609" x2="29.6201" y2="12.2363" gradientUnits="userSpaceOnUse">
<stop offset="0.08" stop-color="#B0E355"/>
<stop offset="0.21" stop-color="#ADE152"/>
<stop offset="0.32" stop-color="#A2DA4A"/>
<stop offset="0.42" stop-color="#91CE3B"/>
<stop offset="0.52" stop-color="#79BE27"/>
<stop offset="0.61" stop-color="#5AA90D"/>
<stop offset="0.65" stop-color="#4A9F00"/>
<stop offset="1" stop-color="#346D0A"/>
</linearGradient>
<linearGradient id="paint7_linear_1_2419" x1="10.7638" y1="-7.98534" x2="44.1906" y2="-11.8554" gradientUnits="userSpaceOnUse">
<stop offset="0.08" stop-color="#B0E355"/>
<stop offset="0.21" stop-color="#ADE152"/>
<stop offset="0.32" stop-color="#A2DA4A"/>
<stop offset="0.42" stop-color="#91CE3B"/>
<stop offset="0.52" stop-color="#79BE27"/>
<stop offset="0.61" stop-color="#5AA90D"/>
<stop offset="0.65" stop-color="#4A9F00"/>
<stop offset="1" stop-color="#346D0A"/>
</linearGradient>
<linearGradient id="paint8_linear_1_2419" x1="10.9222" y1="-6.59353" x2="45.261" y2="-4.50603" gradientUnits="userSpaceOnUse">
<stop offset="0.08" stop-color="#B0E355"/>
<stop offset="0.21" stop-color="#ADE152"/>
<stop offset="0.32" stop-color="#A2DA4A"/>
<stop offset="0.42" stop-color="#91CE3B"/>
<stop offset="0.52" stop-color="#79BE27"/>
<stop offset="0.61" stop-color="#5AA90D"/>
<stop offset="0.65" stop-color="#4A9F00"/>
<stop offset="1" stop-color="#346D0A"/>
</linearGradient>
<linearGradient id="paint9_linear_1_2419" x1="11.0743" y1="-5.29424" x2="40.9854" y2="4.72258" gradientUnits="userSpaceOnUse">
<stop offset="0.08" stop-color="#B0E355"/>
<stop offset="0.21" stop-color="#ADE152"/>
<stop offset="0.32" stop-color="#A2DA4A"/>
<stop offset="0.42" stop-color="#91CE3B"/>
<stop offset="0.52" stop-color="#79BE27"/>
<stop offset="0.61" stop-color="#5AA90D"/>
<stop offset="0.65" stop-color="#4A9F00"/>
<stop offset="1" stop-color="#346D0A"/>
</linearGradient>
<linearGradient id="paint10_linear_1_2419" x1="11.2833" y1="-3.48006" x2="32.8581" y2="2.93144" gradientUnits="userSpaceOnUse">
<stop offset="0.08" stop-color="#B0E355"/>
<stop offset="0.21" stop-color="#ADE152"/>
<stop offset="0.32" stop-color="#A2DA4A"/>
<stop offset="0.42" stop-color="#91CE3B"/>
<stop offset="0.52" stop-color="#79BE27"/>
<stop offset="0.61" stop-color="#5AA90D"/>
<stop offset="0.65" stop-color="#4A9F00"/>
<stop offset="1" stop-color="#346D0A"/>
</linearGradient>
<linearGradient id="paint11_linear_1_2419" x1="5.62411" y1="0.0589162" x2="26.8467" y2="5.38585" gradientUnits="userSpaceOnUse">
<stop offset="0.08" stop-color="#B0E355"/>
<stop offset="0.21" stop-color="#ADE152"/>
<stop offset="0.32" stop-color="#A2DA4A"/>
<stop offset="0.42" stop-color="#91CE3B"/>
<stop offset="0.52" stop-color="#79BE27"/>
<stop offset="0.61" stop-color="#5AA90D"/>
<stop offset="0.65" stop-color="#4A9F00"/>
<stop offset="1" stop-color="#346D0A"/>
</linearGradient>
<linearGradient id="paint12_linear_1_2419" x1="-16.672" y1="16.6016" x2="39.9186" y2="3.77806" gradientUnits="userSpaceOnUse">
<stop offset="0.08" stop-color="#B0E355"/>
<stop offset="0.21" stop-color="#ADE152"/>
<stop offset="0.32" stop-color="#A2DA4A"/>
<stop offset="0.42" stop-color="#91CE3B"/>
<stop offset="0.52" stop-color="#79BE27"/>
<stop offset="0.61" stop-color="#5AA90D"/>
<stop offset="0.65" stop-color="#4A9F00"/>
<stop offset="1" stop-color="#346D0A"/>
</linearGradient>
<radialGradient id="paint13_radial_1_2419" cx="0" cy="0" r="1" gradientUnits="userSpaceOnUse" gradientTransform="translate(78.8829 2.17072) rotate(171.982) scale(83.2744 82.7565)">
<stop offset="0.0390761" stop-color="#00533A"/>
<stop offset="0.556673" stop-color="#08475D"/>
<stop offset="0.666519" stop-color="#1E5161"/>
<stop offset="0.766969" stop-color="#416166"/>
<stop offset="0.846972" stop-color="#6E786E"/>
<stop offset="0.912899" stop-color="#AFB078"/>
<stop offset="0.997941" stop-color="#D3C07E"/>
</radialGradient>
</defs>
</svg>
