<svg width="26" height="35" viewBox="0 0 26 35" fill="none" xmlns="http://www.w3.org/2000/svg">
<g opacity="0.85">
<path d="M3.24835 34.1077C2.63294 31.0657 6.4485 20.9211 13.5873 15.5976C17.8862 12.3215 21.3561 8.0946 23.7211 3.25299V3.07645C22.5997 5.42586 11.0162 5.79253 4.26036 13.1667C-2.35875 20.3915 2.93381 33.4286 3.24835 34.1077Z" fill="url(#paint0_linear_1_2434)"/>
<path d="M13.5871 15.6519C6.46197 20.9754 2.63273 31.12 3.24814 34.1077C4.61573 28.757 16.0077 25.3076 20.4934 20.7581C26.333 14.8642 24.0765 4.70609 23.7072 3.21225C21.3587 8.08687 17.8927 12.3473 13.5871 15.6519Z" fill="url(#paint1_linear_1_2434)"/>
<path d="M21.0951 8.01953L14.9683 8.10101L20.9857 7.61212C21.0598 7.61041 21.1326 7.63174 21.1939 7.67313C21.2552 7.71453 21.302 7.77392 21.3276 7.84299C21.3381 7.87435 21.3413 7.90768 21.3368 7.94044C21.3324 7.97319 21.3205 8.00451 21.302 8.03201C21.2836 8.05951 21.259 8.08247 21.2303 8.09913C21.2015 8.1158 21.1693 8.12573 21.1362 8.12817L21.0951 8.01953Z" fill="url(#paint2_linear_1_2434)"/>
<path d="M18.4558 11.1295L11.3307 11.2925L18.3464 10.7357C18.4214 10.7294 18.4963 10.7489 18.5586 10.7909C18.6208 10.833 18.6666 10.895 18.6883 10.9665C18.6992 10.9971 18.7026 11.0298 18.6982 11.062C18.6938 11.0941 18.6817 11.1247 18.663 11.1513C18.6442 11.1778 18.6194 11.1996 18.5905 11.2147C18.5616 11.2298 18.5295 11.2379 18.4968 11.2382L18.4558 11.1295Z" fill="url(#paint3_linear_1_2434)"/>
<path d="M15.1323 14.5926L8.18501 14.2395H15.0229C15.0963 14.2433 15.1666 14.2704 15.2232 14.3168C15.2799 14.3633 15.3199 14.4267 15.3375 14.4976C15.3436 14.5293 15.3425 14.562 15.3343 14.5933C15.326 14.6245 15.3109 14.6536 15.2899 14.6783C15.269 14.703 15.2427 14.7228 15.2131 14.7361C15.1835 14.7495 15.1512 14.7562 15.1187 14.7556L15.1323 14.5926Z" fill="url(#paint4_linear_1_2434)"/>
<path d="M11.9322 17.2951L4.54724 19.0605L11.7544 16.9148C11.8269 16.9007 11.9021 16.9103 11.9686 16.9421C12.0352 16.9739 12.0896 17.0263 12.1237 17.0914C12.1394 17.1194 12.1487 17.1505 12.1509 17.1825C12.1531 17.2145 12.1481 17.2465 12.1363 17.2764C12.1246 17.3063 12.1063 17.3332 12.0828 17.3552C12.0593 17.3772 12.0313 17.3938 12.0006 17.4037L11.9322 17.2951Z" fill="url(#paint5_linear_1_2434)"/>
<path d="M9.19707 20.1197L3.39851 22.5642H3.31645L8.86885 19.7666C8.93752 19.7372 9.01429 19.7318 9.08641 19.7516C9.15854 19.7714 9.22171 19.815 9.26544 19.8753C9.27933 19.9182 9.28025 19.9642 9.2681 20.0077C9.25595 20.0511 9.23125 20.0901 9.19707 20.1197Z" fill="url(#paint6_linear_1_2434)"/>
<path d="M6.54408 24.4246L3.6448 25.8506C3.6448 25.8506 3.6448 25.8506 3.57642 25.8506L6.18851 23.9901C6.24928 23.9516 6.32238 23.9373 6.39331 23.9498C6.46424 23.9624 6.52782 24.001 6.57143 24.058C6.59967 24.0781 6.62267 24.1046 6.63854 24.1353C6.65441 24.166 6.66269 24.2 6.66269 24.2345C6.66269 24.269 6.65441 24.303 6.63854 24.3337C6.62267 24.3644 6.59967 24.3909 6.57143 24.4111L6.54408 24.4246Z" fill="url(#paint7_linear_1_2434)"/>
<path d="M22.449 13.8456L20.7806 8.30482C20.7697 8.27425 20.7663 8.24153 20.7707 8.2094C20.7751 8.17727 20.7872 8.14666 20.8059 8.12009C20.8247 8.09353 20.8495 8.07178 20.8784 8.05667C20.9073 8.04156 20.9394 8.03352 20.972 8.03321C21.0471 8.02693 21.122 8.04643 21.1842 8.08847C21.2464 8.1305 21.2923 8.1925 21.3139 8.26408L22.5584 13.8592C22.541 13.8684 22.5212 13.8721 22.5016 13.8696C22.482 13.8672 22.4636 13.8588 22.449 13.8456Z" fill="url(#paint8_linear_1_2434)"/>
<path d="M19.3173 16.9285L17.7035 11.4012C17.6953 11.3697 17.6944 11.3367 17.7007 11.3047C17.7071 11.2727 17.7206 11.2425 17.7403 11.2164C17.76 11.1904 17.7854 11.169 17.8145 11.154C17.8437 11.139 17.8759 11.1306 17.9087 11.1296C17.9819 11.124 18.0549 11.144 18.1148 11.1862C18.1748 11.2283 18.218 11.29 18.2369 11.3605L19.413 16.9149L19.3173 16.9285Z" fill="url(#paint9_linear_1_2434)"/>
<path d="M16.5546 19.4138L15.0093 14.4841C14.9988 14.4527 14.9956 14.4194 15.0001 14.3866C15.0045 14.3539 15.0164 14.3225 15.0348 14.295C15.0533 14.2675 15.0778 14.2446 15.1066 14.2279C15.1353 14.2113 15.1675 14.2013 15.2007 14.1989C15.2753 14.195 15.3491 14.2155 15.4108 14.2572C15.4725 14.2989 15.5188 14.3595 15.5426 14.4297L16.664 19.4002C16.664 19.4002 16.5683 19.4409 16.5546 19.4138Z" fill="url(#paint10_linear_1_2434)"/>
<path d="M13.6144 22.6185L11.2895 17.4444C11.2766 17.4142 11.2703 17.3817 11.271 17.349C11.2717 17.3162 11.2795 17.284 11.2937 17.2545C11.3079 17.2249 11.3283 17.1987 11.3535 17.1776C11.3787 17.1565 11.4082 17.141 11.4399 17.132C11.5137 17.1212 11.5892 17.1337 11.6554 17.1679C11.7217 17.202 11.7755 17.256 11.8091 17.3221L13.7101 22.6049C13.6992 22.6193 13.683 22.6289 13.6651 22.6314C13.6562 22.6327 13.6471 22.6322 13.6384 22.63C13.6297 22.6277 13.6215 22.6239 13.6144 22.6185Z" fill="url(#paint11_linear_1_2434)"/>
<path d="M10.1407 24.7235L8.67743 20.2012C8.66694 20.1699 8.66379 20.1365 8.66822 20.1038C8.67266 20.071 8.68456 20.0397 8.70302 20.0122C8.72148 19.9847 8.74602 19.9618 8.77476 19.9451C8.80351 19.9284 8.8357 19.9185 8.86889 19.9161C8.94178 19.9112 9.0143 19.9298 9.07583 19.9689C9.13735 20.008 9.18465 20.0656 9.21079 20.1333L10.2502 24.6964C10.2372 24.7118 10.2196 24.7227 10.1999 24.7276C10.1802 24.7325 10.1595 24.7311 10.1407 24.7235Z" fill="url(#paint12_linear_1_2434)"/>
<path d="M7.4194 27.3176L6.05182 24.2212C6.03907 24.1902 6.03329 24.1568 6.03487 24.1233C6.03646 24.0898 6.04537 24.057 6.06098 24.0273C6.0766 23.9976 6.09855 23.9716 6.12531 23.9511C6.15207 23.9307 6.18299 23.9163 6.21593 23.9089C6.28941 23.9 6.36381 23.9151 6.42793 23.9518C6.49205 23.9886 6.54243 24.045 6.5715 24.1126L7.52881 27.3176C7.52244 27.326 7.51418 27.3328 7.50469 27.3376C7.49519 27.3423 7.48472 27.3447 7.4741 27.3447C7.46349 27.3447 7.45302 27.3423 7.44352 27.3376C7.43403 27.3328 7.42577 27.326 7.4194 27.3176Z" fill="url(#paint13_linear_1_2434)"/>
<path d="M25.362 0.984999V1.09364L25.239 1.41957C25.1159 1.69118 24.9518 2.09859 24.7193 2.58748C24.0793 3.95784 23.353 5.28682 22.5448 6.56654C21.395 8.36761 20.0909 10.0669 18.6472 11.6456C17.8278 12.5426 16.9556 13.3906 16.0351 14.1852L15.3103 14.7963L14.5718 15.3938L13.0538 16.5346C12.0868 17.3107 11.1731 18.15 10.3186 19.0469C9.51809 19.9042 8.77352 20.8115 8.08945 21.763C6.89256 23.5019 5.88839 25.3642 5.09444 27.3174C4.50269 28.6941 4.02252 30.1155 3.65848 31.5681C3.52172 32.1113 3.42599 32.5323 3.37128 32.8175L3.28923 33.252C3.28923 33.3199 3.28923 33.3471 3.16615 33.3335C3.04306 33.3199 3.05674 33.252 3.07042 33.1977C3.08409 33.1434 3.07041 33.0347 3.1388 32.7496C3.20717 32.4644 3.26188 32.0162 3.38496 31.4866C3.74009 30.0131 4.19703 28.5656 4.75255 27.1544C5.528 25.1687 6.51363 23.2704 7.69285 21.4914C8.36442 20.4949 9.09988 19.5423 9.89466 18.6395C10.7407 17.6965 11.6549 16.816 12.6298 16.0049L14.1068 14.837L14.818 14.2395L15.5154 13.6284C16.3944 12.8218 17.2298 11.9695 18.0181 11.0752C19.4053 9.4967 20.6457 7.79674 21.7243 5.99616C22.4992 4.73221 23.1846 3.41626 23.7757 2.05785C23.9945 1.56896 24.1449 1.1887 24.2406 0.917097L24.3637 0.604746V0.50968C24.3926 0.44935 24.4337 0.395544 24.4843 0.35158C24.535 0.307619 24.5942 0.274435 24.6582 0.254072C24.7223 0.233713 24.7899 0.226603 24.8569 0.233194C24.9238 0.239786 24.9887 0.259935 25.0475 0.292395C25.1832 0.336279 25.2975 0.428724 25.3683 0.551729C25.4391 0.674738 25.4612 0.819502 25.4304 0.957834L25.362 0.984999Z" fill="url(#paint14_linear_1_2434)"/>
<path style="mix-blend-mode:screen" d="M3.26173 34.2026C4.62931 28.852 16.0213 25.4025 20.507 20.8531C25.6901 15.6382 24.5003 7.05541 23.9123 4.13562C24.2131 3.56525 24.473 3.03561 24.6781 2.58746C24.8832 2.13931 25.0747 1.69115 25.1978 1.41954L25.3209 1.09361V0.984972C25.3517 0.846636 25.3295 0.701872 25.2587 0.578863C25.1879 0.455858 25.0736 0.363413 24.9379 0.319529C24.8791 0.287069 24.8143 0.266924 24.7473 0.260332C24.6804 0.25374 24.6128 0.260843 24.5487 0.281202C24.4846 0.301565 24.4254 0.334753 24.3748 0.378718C24.3241 0.422678 24.2831 0.476484 24.2542 0.536814V0.631876L24.1311 0.944231C24.0353 1.21584 23.8849 1.59609 23.6661 2.08498C23.4473 2.57387 23.1464 3.22573 22.7908 3.93192C19.7411 5.67021 10.127 6.75664 4.20536 13.2209C-2.37272 20.3914 2.91983 33.4286 3.23437 34.1619L3.26173 34.2026Z" fill="url(#paint15_radial_1_2434)"/>
</g>
<defs>
<linearGradient id="paint0_linear_1_2434" x1="-14.575" y1="18.3538" x2="17.4201" y2="2.38361" gradientUnits="userSpaceOnUse">
<stop offset="0.08" stop-color="#B0E355"/>
<stop offset="0.21" stop-color="#ADE152"/>
<stop offset="0.32" stop-color="#A2DA4A"/>
<stop offset="0.42" stop-color="#91CE3B"/>
<stop offset="0.52" stop-color="#79BE27"/>
<stop offset="0.61" stop-color="#5AA90D"/>
<stop offset="0.65" stop-color="#4A9F00"/>
<stop offset="1" stop-color="#346D0A"/>
</linearGradient>
<linearGradient id="paint1_linear_1_2434" x1="1.46677" y1="32.7056" x2="0.401284" y2="1.33634" gradientUnits="userSpaceOnUse">
<stop offset="0.08" stop-color="#B0E355"/>
<stop offset="0.21" stop-color="#ADE152"/>
<stop offset="0.32" stop-color="#A2DA4A"/>
<stop offset="0.42" stop-color="#91CE3B"/>
<stop offset="0.52" stop-color="#79BE27"/>
<stop offset="0.61" stop-color="#5AA90D"/>
<stop offset="0.65" stop-color="#4A9F00"/>
<stop offset="1" stop-color="#346D0A"/>
</linearGradient>
<linearGradient id="paint2_linear_1_2434" x1="-20.2592" y1="26.5153" x2="1.97632" y2="3.6052" gradientUnits="userSpaceOnUse">
<stop offset="0.08" stop-color="#B0E355"/>
<stop offset="0.21" stop-color="#ADE152"/>
<stop offset="0.32" stop-color="#A2DA4A"/>
<stop offset="0.42" stop-color="#91CE3B"/>
<stop offset="0.52" stop-color="#79BE27"/>
<stop offset="0.61" stop-color="#5AA90D"/>
<stop offset="0.65" stop-color="#4A9F00"/>
<stop offset="1" stop-color="#346D0A"/>
</linearGradient>
<linearGradient id="paint3_linear_1_2434" x1="-20.2778" y1="26.4991" x2="1.96354" y2="3.58766" gradientUnits="userSpaceOnUse">
<stop offset="0.08" stop-color="#B0E355"/>
<stop offset="0.21" stop-color="#ADE152"/>
<stop offset="0.32" stop-color="#A2DA4A"/>
<stop offset="0.42" stop-color="#91CE3B"/>
<stop offset="0.52" stop-color="#79BE27"/>
<stop offset="0.61" stop-color="#5AA90D"/>
<stop offset="0.65" stop-color="#4A9F00"/>
<stop offset="1" stop-color="#346D0A"/>
</linearGradient>
<linearGradient id="paint4_linear_1_2434" x1="-20.3064" y1="26.4673" x2="1.92944" y2="3.55721" gradientUnits="userSpaceOnUse">
<stop offset="0.08" stop-color="#B0E355"/>
<stop offset="0.21" stop-color="#ADE152"/>
<stop offset="0.32" stop-color="#A2DA4A"/>
<stop offset="0.42" stop-color="#91CE3B"/>
<stop offset="0.52" stop-color="#79BE27"/>
<stop offset="0.61" stop-color="#5AA90D"/>
<stop offset="0.65" stop-color="#4A9F00"/>
<stop offset="1" stop-color="#346D0A"/>
</linearGradient>
<linearGradient id="paint5_linear_1_2434" x1="-20.2137" y1="26.5583" x2="2.02555" y2="3.65032" gradientUnits="userSpaceOnUse">
<stop offset="0.08" stop-color="#B0E355"/>
<stop offset="0.21" stop-color="#ADE152"/>
<stop offset="0.32" stop-color="#A2DA4A"/>
<stop offset="0.42" stop-color="#91CE3B"/>
<stop offset="0.52" stop-color="#79BE27"/>
<stop offset="0.61" stop-color="#5AA90D"/>
<stop offset="0.65" stop-color="#4A9F00"/>
<stop offset="1" stop-color="#346D0A"/>
</linearGradient>
<linearGradient id="paint6_linear_1_2434" x1="-19.5812" y1="27.1757" x2="2.658" y2="4.26774" gradientUnits="userSpaceOnUse">
<stop offset="0.08" stop-color="#B0E355"/>
<stop offset="0.21" stop-color="#ADE152"/>
<stop offset="0.32" stop-color="#A2DA4A"/>
<stop offset="0.42" stop-color="#91CE3B"/>
<stop offset="0.52" stop-color="#79BE27"/>
<stop offset="0.61" stop-color="#5AA90D"/>
<stop offset="0.65" stop-color="#4A9F00"/>
<stop offset="1" stop-color="#346D0A"/>
</linearGradient>
<linearGradient id="paint7_linear_1_2434" x1="-18.2872" y1="28.4335" x2="3.95073" y2="5.51989" gradientUnits="userSpaceOnUse">
<stop offset="0.08" stop-color="#B0E355"/>
<stop offset="0.21" stop-color="#ADE152"/>
<stop offset="0.32" stop-color="#A2DA4A"/>
<stop offset="0.42" stop-color="#91CE3B"/>
<stop offset="0.52" stop-color="#79BE27"/>
<stop offset="0.61" stop-color="#5AA90D"/>
<stop offset="0.65" stop-color="#4A9F00"/>
<stop offset="1" stop-color="#346D0A"/>
</linearGradient>
<linearGradient id="paint8_linear_1_2434" x1="-16.8854" y1="29.7967" x2="5.356" y2="6.88526" gradientUnits="userSpaceOnUse">
<stop offset="0.08" stop-color="#B0E355"/>
<stop offset="0.21" stop-color="#ADE152"/>
<stop offset="0.32" stop-color="#A2DA4A"/>
<stop offset="0.42" stop-color="#91CE3B"/>
<stop offset="0.52" stop-color="#79BE27"/>
<stop offset="0.61" stop-color="#5AA90D"/>
<stop offset="0.65" stop-color="#4A9F00"/>
<stop offset="1" stop-color="#346D0A"/>
</linearGradient>
<linearGradient id="paint9_linear_1_2434" x1="-16.9123" y1="29.7705" x2="5.32907" y2="6.85904" gradientUnits="userSpaceOnUse">
<stop offset="0.08" stop-color="#B0E355"/>
<stop offset="0.21" stop-color="#ADE152"/>
<stop offset="0.32" stop-color="#A2DA4A"/>
<stop offset="0.42" stop-color="#91CE3B"/>
<stop offset="0.52" stop-color="#79BE27"/>
<stop offset="0.61" stop-color="#5AA90D"/>
<stop offset="0.65" stop-color="#4A9F00"/>
<stop offset="1" stop-color="#346D0A"/>
</linearGradient>
<linearGradient id="paint10_linear_1_2434" x1="-16.9089" y1="29.7727" x2="5.33244" y2="6.8613" gradientUnits="userSpaceOnUse">
<stop offset="0.08" stop-color="#B0E355"/>
<stop offset="0.21" stop-color="#ADE152"/>
<stop offset="0.32" stop-color="#A2DA4A"/>
<stop offset="0.42" stop-color="#91CE3B"/>
<stop offset="0.52" stop-color="#79BE27"/>
<stop offset="0.61" stop-color="#5AA90D"/>
<stop offset="0.65" stop-color="#4A9F00"/>
<stop offset="1" stop-color="#346D0A"/>
</linearGradient>
<linearGradient id="paint11_linear_1_2434" x1="-17.0743" y1="29.6124" x2="5.16704" y2="6.70095" gradientUnits="userSpaceOnUse">
<stop offset="0.08" stop-color="#B0E355"/>
<stop offset="0.21" stop-color="#ADE152"/>
<stop offset="0.32" stop-color="#A2DA4A"/>
<stop offset="0.42" stop-color="#91CE3B"/>
<stop offset="0.52" stop-color="#79BE27"/>
<stop offset="0.61" stop-color="#5AA90D"/>
<stop offset="0.65" stop-color="#4A9F00"/>
<stop offset="1" stop-color="#346D0A"/>
</linearGradient>
<linearGradient id="paint12_linear_1_2434" x1="-17.3968" y1="29.3022" x2="4.84674" y2="6.38727" gradientUnits="userSpaceOnUse">
<stop offset="0.08" stop-color="#B0E355"/>
<stop offset="0.21" stop-color="#ADE152"/>
<stop offset="0.32" stop-color="#A2DA4A"/>
<stop offset="0.42" stop-color="#91CE3B"/>
<stop offset="0.52" stop-color="#79BE27"/>
<stop offset="0.61" stop-color="#5AA90D"/>
<stop offset="0.65" stop-color="#4A9F00"/>
<stop offset="1" stop-color="#346D0A"/>
</linearGradient>
<linearGradient id="paint13_linear_1_2434" x1="-17.0824" y1="29.6027" x2="5.15897" y2="6.69126" gradientUnits="userSpaceOnUse">
<stop offset="0.08" stop-color="#B0E355"/>
<stop offset="0.21" stop-color="#ADE152"/>
<stop offset="0.32" stop-color="#A2DA4A"/>
<stop offset="0.42" stop-color="#91CE3B"/>
<stop offset="0.52" stop-color="#79BE27"/>
<stop offset="0.61" stop-color="#5AA90D"/>
<stop offset="0.65" stop-color="#4A9F00"/>
<stop offset="1" stop-color="#346D0A"/>
</linearGradient>
<linearGradient id="paint14_linear_1_2434" x1="-17.9612" y1="28.746" x2="4.27455" y2="5.83591" gradientUnits="userSpaceOnUse">
<stop offset="0.08" stop-color="#B0E355"/>
<stop offset="0.21" stop-color="#ADE152"/>
<stop offset="0.32" stop-color="#A2DA4A"/>
<stop offset="0.42" stop-color="#91CE3B"/>
<stop offset="0.52" stop-color="#79BE27"/>
<stop offset="0.61" stop-color="#5AA90D"/>
<stop offset="0.65" stop-color="#4A9F00"/>
<stop offset="1" stop-color="#346D0A"/>
</linearGradient>
<radialGradient id="paint15_radial_1_2434" cx="0" cy="0" r="1" gradientUnits="userSpaceOnUse" gradientTransform="translate(19.3596 21.5442) rotate(162.078) scale(22.022 21.8975)">
<stop offset="0.54" stop-color="#00435C"/>
<stop offset="0.58" stop-color="#08475D"/>
<stop offset="0.62" stop-color="#1E5161"/>
<stop offset="0.68" stop-color="#416166"/>
<stop offset="0.75" stop-color="#72786E"/>
<stop offset="0.83" stop-color="#B09478"/>
<stop offset="0.87" stop-color="#D3A47E"/>
</radialGradient>
</defs>
</svg>
