<svg width="34" height="21" viewBox="0 0 34 21" fill="none" xmlns="http://www.w3.org/2000/svg">
<g opacity="0.85">
<path d="M39.288 6.98143C39.6595 7.08568 40.0108 7.25093 40.3274 7.47033C38.8504 5.33821 32.0124 0.109751 20.7299 0.00110802C7.68311 -0.107535 2.2538 7.79626 3.81285 13.5815C3.83929 13.7256 3.88054 13.8667 3.93593 14.0025C29.2089 1.78014 39.288 6.98143 39.288 6.98143Z" fill="url(#paint0_linear_1_2171)"/>
<path d="M24.313 14.7495C34.3921 6.51977 39.9582 7.4025 40.3138 7.4704C39.9972 7.251 39.6459 7.08575 39.2744 6.98151C39.2744 6.98151 29.209 1.78021 3.94971 14.0569C5.83697 20.2224 12.8937 24.0521 24.313 14.7495Z" fill="url(#paint1_linear_1_2171)"/>
<path d="M12.4833 3.21964L12.0731 3.51841L11.6354 3.89866L11.3619 4.12953L11.0747 4.40114L10.7738 4.69991L10.4593 5.03942C10.2405 5.27028 10.0217 5.52831 9.81654 5.78634C9.6114 6.04437 9.39259 6.34314 9.18745 6.6419C8.98231 6.94067 8.98231 6.94067 8.88658 7.09006C8.79085 7.23944 8.68144 7.4024 8.59939 7.55179C8.51733 7.70117 8.23014 8.19007 8.06603 8.50242C7.90192 8.81477 7.75149 9.15428 7.61473 9.45305C7.47797 9.75182 7.34121 10.0777 7.2318 10.3629C7.1224 10.6481 7.02666 10.9469 6.94461 11.2049C6.76682 11.721 6.65742 12.1555 6.57536 12.4679C6.55569 12.5872 6.52828 12.7052 6.49331 12.821V12.9432C6.4788 13.026 6.43175 13.0998 6.3625 13.1482C6.29325 13.1966 6.20748 13.2156 6.12406 13.2012C6.04064 13.1868 5.9664 13.1401 5.91767 13.0713C5.86894 13.0026 5.84971 12.9174 5.86422 12.8346V12.6988C5.86422 12.6037 5.86422 12.4815 5.95995 12.3185C6.05568 12.1555 6.19244 11.558 6.3839 10.9605L6.72579 10.1185C6.84888 9.8333 6.99931 9.52095 7.14975 9.2086C7.30018 8.89625 7.47797 8.57032 7.65575 8.25797C7.83354 7.94562 8.03868 7.61969 8.24381 7.30734C8.44895 6.99499 8.44895 6.99499 8.55836 6.83203L8.88658 6.39746C9.10539 6.09869 9.33788 5.8135 9.55669 5.55547C9.77551 5.29745 10.0217 5.03942 10.2405 4.80855L10.5824 4.48262L10.9106 4.19743L11.2115 3.9394L11.485 3.70854L11.9636 3.34187L12.3739 3.05668H12.4697C12.4914 3.05488 12.513 3.06174 12.5297 3.07574C12.5463 3.08975 12.5567 3.10976 12.5585 3.13137C12.5604 3.15298 12.5535 3.17442 12.5394 3.19097C12.5252 3.20753 12.5051 3.21784 12.4833 3.21964Z" fill="url(#paint2_linear_1_2171)"/>
<path d="M17.29 3.20853L16.8999 3.43647L16.4837 3.72658L16.2236 3.90272L15.9506 4.10993L15.6645 4.33787L15.3654 4.5969C15.1573 4.77303 14.9492 4.96989 14.7542 5.16675C14.5591 5.36361 14.351 5.59155 14.156 5.81949C13.9609 6.04743 13.9609 6.04743 13.8699 6.1614C13.7788 6.27537 13.6748 6.3997 13.5968 6.51367C13.5188 6.62764 13.2457 7.00064 13.0896 7.23894C12.9336 7.47724 12.7905 7.73627 12.6605 7.96421C12.5304 8.19215 12.4004 8.44081 12.2964 8.65839C12.1923 8.87597 12.1013 9.10391 12.0233 9.30077C11.8542 9.69449 11.7502 10.026 11.6722 10.2643C11.6535 10.3554 11.6274 10.4454 11.5941 10.5337V10.627C11.5803 10.6902 11.5356 10.7464 11.4698 10.7833C11.4039 10.8203 11.3223 10.8348 11.243 10.8238C11.1637 10.8128 11.0931 10.7772 11.0468 10.7247C11.0004 10.6723 10.9822 10.6073 10.9959 10.5441V10.4405C10.9959 10.3679 10.9959 10.2747 11.087 10.1504C11.178 10.026 11.308 9.57015 11.4901 9.11427L11.8152 8.47189C11.9322 8.25431 12.0753 8.01601 12.2183 7.77771C12.3614 7.53941 12.5304 7.29074 12.6995 7.05244C12.8686 6.81414 13.0636 6.56548 13.2587 6.32717C13.4537 6.08887 13.4537 6.08887 13.5578 5.96454L13.8699 5.63299C14.0779 5.40505 14.299 5.18747 14.5071 4.99061C14.7151 4.79376 14.9492 4.5969 15.1573 4.42076L15.4824 4.1721L15.7945 3.95452L16.0806 3.75766L16.3407 3.58153L16.7958 3.30178L17.186 3.0842H17.277C17.2977 3.08283 17.3182 3.08806 17.3341 3.09874C17.3499 3.10943 17.3598 3.1247 17.3615 3.14119C17.3632 3.15767 17.3567 3.17403 17.3433 3.18666C17.3298 3.19929 17.3107 3.20716 17.29 3.20853Z" fill="url(#paint3_linear_1_2171)"/>
<path d="M19.1161 7.89129L19.1981 7.80981L19.4443 7.57894L19.8135 7.23943L20.3195 6.80486C20.511 6.65548 20.7025 6.47893 20.9213 6.31597L21.6187 5.78633L22.3846 5.2567L23.1915 4.74064C23.4787 4.57767 23.7522 4.40113 24.0257 4.26533L24.4496 4.03446L24.8599 3.84433L25.2565 3.65421L25.6531 3.49124C25.8894 3.38326 26.1313 3.28806 26.3779 3.20606L26.9797 3.00235L27.472 2.88012L27.8959 2.77148V2.8937L27.4857 3.02951L27.007 3.1789L26.4053 3.40976C26.1728 3.49124 25.954 3.61347 25.6941 3.72211L25.3249 3.89866L24.942 4.11594L24.5454 4.31965L24.1488 4.5641C23.8753 4.71348 23.6154 4.90361 23.3419 5.06657L22.576 5.62337L21.8512 6.18016C21.6324 6.37029 21.3999 6.54684 21.2085 6.72338L20.6341 7.23943C20.4563 7.38882 20.3059 7.55178 20.1691 7.67401L19.8135 8.0271L19.6084 8.25796L19.5263 8.33945C19.497 8.36943 19.4619 8.39326 19.4232 8.40954C19.3844 8.42581 19.3428 8.43419 19.3007 8.43419C19.2586 8.43419 19.2169 8.42581 19.1782 8.40954C19.1394 8.39326 19.1043 8.36943 19.075 8.33945C19.0202 8.27749 18.99 8.19784 18.99 8.11537C18.99 8.0329 19.0202 7.95325 19.075 7.89129H19.1161Z" fill="url(#paint4_linear_1_2171)"/>
<path d="M15.0068 8.98205L15.0598 8.88746L15.2216 8.61696L15.4657 8.21787L15.8068 7.70096C15.939 7.52008 16.0655 7.31265 16.2182 7.11353L16.7029 6.46887L17.246 5.81179L17.827 5.16053C18.0382 4.94898 18.2348 4.72664 18.44 4.54414L18.7537 4.24134L19.0643 3.98087L19.3633 3.72289L19.6679 3.49146C19.8471 3.34294 20.0339 3.20588 20.2274 3.08088L20.6988 2.77234L21.0938 2.56336L21.4332 2.38009L21.4589 2.49961L21.1369 2.70696L20.7592 2.94002L20.2936 3.27511C20.112 3.39704 19.9507 3.55632 19.7515 3.70977L19.4731 3.94951L19.1916 4.23157L18.8955 4.50284L18.608 4.81394C18.4056 5.00973 18.2236 5.24286 18.0241 5.45192L17.4867 6.13557L16.9844 6.81176C16.8373 7.03744 16.6758 7.25233 16.5493 7.45976L16.1669 8.06877C16.0464 8.24716 15.9521 8.43385 15.861 8.57823L15.6313 8.98812L15.5046 9.25116L15.4516 9.34575C15.4328 9.3804 15.4079 9.41008 15.3782 9.43303C15.3485 9.45599 15.3146 9.47176 15.2787 9.47941C15.2427 9.48705 15.2053 9.48642 15.1688 9.47755C15.1323 9.46868 15.0973 9.45174 15.0659 9.42775C15.0061 9.37712 14.9635 9.30473 14.9461 9.22408C14.9288 9.14343 14.9379 9.06005 14.9717 8.9895L15.0068 8.98205Z" fill="url(#paint5_linear_1_2171)"/>
<path d="M31.6157 4.08868H31.2875H30.9183L30.4396 4.15658L29.8789 4.29238C29.6699 4.34814 29.4644 4.41616 29.2635 4.49609L28.6207 4.74053L27.9643 5.03931C27.1666 5.4076 26.3904 5.82019 25.6394 6.27512C25.3248 6.45167 25.0787 6.61463 24.9009 6.72328L24.6274 6.89982C24.5547 6.94612 24.4665 6.9621 24.3821 6.94431C24.2976 6.92651 24.2236 6.87637 24.1761 6.80476C24.1533 6.77007 24.1378 6.73124 24.1303 6.69053C24.1228 6.64981 24.1235 6.60802 24.1324 6.56759C24.1413 6.52715 24.1582 6.48888 24.1821 6.45499C24.2061 6.4211 24.2365 6.39227 24.2718 6.37018L24.5727 6.20722L25.3522 5.78623C26.0086 5.4603 26.8839 5.03931 27.8002 4.68622L28.484 4.42819L29.1541 4.22448L29.7968 4.06151C29.9907 4.01468 30.187 3.97841 30.3849 3.95287H30.8909C31.023 3.94605 31.1554 3.94605 31.2875 3.95287H31.5337H31.6157V4.08868Z" fill="url(#paint6_linear_1_2171)"/>
<path d="M6.37013 12.6444L6.75305 12.9839L7.83345 13.8666C8.91973 14.7123 10.0722 15.4707 11.2798 16.1346C11.608 16.3247 11.9362 16.4877 12.2644 16.6506L12.7704 16.8815L13.2628 17.0988C13.591 17.221 13.9055 17.3432 14.2201 17.4383L15.0816 17.6827L15.4782 17.7778H15.8475H16.162H16.4356H16.8048H16.9552V17.9H16.162H15.8338H15.4646L15.0543 17.8185C14.7808 17.8185 14.4662 17.6963 14.1517 17.6012C13.8371 17.5062 13.5089 17.4111 13.167 17.2889L12.661 17.0988L12.1413 16.8951C11.7994 16.7321 11.4439 16.5827 11.102 16.4062C9.85276 15.7751 8.6548 15.0486 7.5189 14.2333C7.05392 13.9074 6.671 13.6086 6.41116 13.4049L6.11029 13.1605L6.00088 13.079C5.94317 13.0184 5.91101 12.9383 5.91101 12.8549C5.91101 12.7715 5.94317 12.6914 6.00088 12.6308C6.02901 12.6012 6.06292 12.5776 6.10055 12.5615C6.13817 12.5454 6.17872 12.5371 6.2197 12.5371C6.26067 12.5371 6.30122 12.5454 6.33885 12.5615C6.37647 12.5776 6.41039 12.6012 6.43851 12.6308L6.37013 12.6444Z" fill="url(#paint7_linear_1_2171)"/>
<path d="M10.0351 11.2185L10.4181 11.4901C10.6642 11.6667 11.0198 11.9111 11.4574 12.1827C12.5199 12.8805 13.6202 13.5197 14.7533 14.0975C15.0542 14.2605 15.3687 14.4099 15.6833 14.5457L16.5996 14.9395C16.9004 15.0618 17.2013 15.1704 17.4748 15.2519L17.8851 15.3741L18.2817 15.4827C18.5105 15.545 18.7436 15.5904 18.9792 15.6186H19.2663H19.9912H19.8681C19.7497 15.6255 19.6309 15.6255 19.5125 15.6186H19.2527H18.9518C18.733 15.6186 18.5005 15.6185 18.2407 15.5099L17.8304 15.4148L17.4064 15.4827C17.1007 15.4091 16.7993 15.3184 16.5038 15.2111L15.5465 14.858L14.5892 14.4371C13.4174 13.907 12.2761 13.3131 11.1702 12.658L10.0762 11.9926L9.6659 11.7346C9.59972 11.6856 9.55452 11.6137 9.53931 11.5332C9.52411 11.4527 9.54001 11.3694 9.58384 11.3C9.6013 11.2604 9.62683 11.2249 9.65881 11.1957C9.6908 11.1664 9.72855 11.144 9.76967 11.13C9.8108 11.116 9.8544 11.1105 9.89774 11.1141C9.94108 11.1176 9.98321 11.1301 10.0215 11.1506L10.0351 11.2185Z" fill="url(#paint8_linear_1_2171)"/>
<path d="M14.6714 9.50718L15.0133 9.77879L15.9569 10.485C16.3535 10.7702 16.8322 11.0825 17.3245 11.4084L18.1177 11.8973L18.9656 12.3726L19.4032 12.6035L19.8409 12.8072L20.7024 13.1739L21.1264 13.3233L21.5367 13.4591H21.7281H21.9196H22.1111H22.2888H22.4666H22.6307H22.9453H23.465C23.5742 13.4671 23.6839 13.4671 23.7932 13.4591H23.9026C23.9222 13.4588 23.9412 13.4655 23.9563 13.478C23.9713 13.4904 23.9814 13.5078 23.9847 13.527H23.8752H23.5333H22.8769H22.5624H22.3846H22.2068H22.0153H21.8239H21.6187H21.4136L20.9896 13.4048L20.552 13.269C20.2511 13.1739 19.9503 13.0517 19.6494 12.9294L19.1981 12.7393L18.7742 12.7122L17.8852 12.2776L17.051 11.8159C16.504 11.5035 16.0116 11.2047 15.5877 10.9331C15.1637 10.6615 14.8355 10.4306 14.5893 10.2677L14.2201 9.99608C14.1533 9.94723 14.1086 9.87416 14.0958 9.79277C14.083 9.71137 14.1031 9.62826 14.1517 9.5615C14.2141 9.50707 14.2943 9.47705 14.3774 9.47705C14.4604 9.47705 14.5406 9.50707 14.603 9.5615L14.6714 9.50718Z" fill="url(#paint9_linear_1_2171)"/>
<path d="M19.5676 7.87769H19.636L19.8274 8.05423C20.0052 8.2172 20.265 8.4209 20.5933 8.66535L21.1403 9.01844C21.3431 9.15608 21.5531 9.28301 21.7694 9.39869L22.4669 9.75178L23.219 10.0505L23.6019 10.1864L23.9849 10.3086C24.2447 10.3086 24.5046 10.4444 24.7507 10.4851L25.4755 10.6073H25.8174H26.7064H27.1303H27.5132V10.6753H27.1303H26.6927H26.1183H25.4482L24.696 10.5938C24.4362 10.5938 24.1627 10.5123 23.8891 10.458L23.4789 10.3493L23.0823 10.2407C22.8129 10.1599 22.5481 10.0647 22.2891 9.95549L21.5095 9.88758C21.2771 9.76536 21.0446 9.65672 20.8394 9.5345L20.2514 9.1814C19.9591 9.00098 19.6761 8.80608 19.4035 8.59745L19.212 8.43448H19.1299C19.0665 8.37865 19.0279 8.30008 19.0228 8.21603C19.0177 8.13198 19.0464 8.04936 19.1026 7.98633C19.1588 7.9233 19.2379 7.88503 19.3226 7.87993C19.4072 7.87484 19.4904 7.90334 19.5539 7.95917L19.5676 7.87769Z" fill="url(#paint10_linear_1_2171)"/>
<path d="M24.6684 6.5331L24.9282 6.64174L25.6393 6.92693C26.2274 7.1578 27.0069 7.44299 27.8275 7.7146C28.5573 7.95953 29.3018 8.15909 30.0567 8.31213H30.4806H30.8088H31.0823C31.0883 8.32246 31.0915 8.33417 31.0915 8.34609C31.0915 8.35801 31.0883 8.36971 31.0823 8.38003H30.8088C30.6953 8.39424 30.5804 8.39424 30.4669 8.38003H30.0293C29.2492 8.28516 28.4768 8.1354 27.7181 7.93188C26.8975 7.72818 26.077 7.49731 25.4616 7.30718L24.7231 7.07632L24.4496 6.99483C24.4084 6.98262 24.3701 6.96217 24.3372 6.93471C24.3043 6.90726 24.2774 6.8734 24.2582 6.83522C24.239 6.79704 24.2278 6.75536 24.2255 6.71274C24.2231 6.67012 24.2295 6.62747 24.2444 6.58742C24.2569 6.5481 24.277 6.51161 24.3037 6.48006C24.3304 6.4485 24.3631 6.4225 24.4 6.40357C24.4369 6.38463 24.4771 6.37313 24.5185 6.36972C24.5599 6.36631 24.6015 6.37107 24.641 6.38372L24.6684 6.5331Z" fill="url(#paint11_linear_1_2171)"/>
<path d="M39.206 7.07642H39.1102L38.7957 6.9542C38.397 6.81386 37.9906 6.69598 37.5785 6.60111C37.0452 6.47889 36.3887 6.37024 35.6229 6.27518C34.857 6.18012 33.9955 6.13938 33.0518 6.1258H32.3407H31.5885H30.809H30.0158L29.1952 6.20728L28.3473 6.3974H27.9234L27.4858 6.46531L26.6242 6.58753L25.7489 6.75049L24.86 6.92704L23.9574 7.11716L23.5061 7.21223L23.0548 7.32087L22.1522 7.55174L21.2359 7.78261L20.3333 8.04063L19.4307 8.31224L18.5281 8.58385L17.6255 8.88262L16.7365 9.16781L15.8476 9.48016C14.6852 9.90115 13.5501 10.3493 12.4423 10.7703L10.8423 11.4493L10.4456 11.6123L10.0627 11.7752L9.31056 12.1148L8.58573 12.4407L7.87459 12.753C7.40961 12.9703 6.97198 13.1876 6.507 13.3777L5.87792 13.6765L5.28985 13.9753L4.19579 14.5185L3.23848 14.9938L2.41793 15.4148L0.995639 16.2704C0.846929 16.3478 0.673332 16.3634 0.513037 16.3137C0.352742 16.2641 0.21888 16.1532 0.140898 16.0055C0.0629164 15.8579 0.0472048 15.6855 0.0972169 15.5263C0.147229 15.3671 0.258867 15.2342 0.407577 15.1568L1.9803 14.3963L2.80085 13.9888L3.78551 13.5271L4.90693 12.9975L5.50867 12.7259L6.15143 12.4407L7.51902 11.8431L8.24384 11.5308L8.98233 11.2184L9.74818 10.9061L10.1448 10.7431L10.5414 10.5937L12.1825 9.95547C13.3039 9.54806 14.4663 9.11349 15.6561 8.73324C15.957 8.63817 16.2442 8.52953 16.5588 8.44804L17.4067 8.16286L18.3229 7.89125L19.2392 7.63322L20.1555 7.3752L21.0855 7.15791L22.0154 6.92704L22.9317 6.72334L23.3967 6.62827L23.848 6.54679L24.7643 6.37024C25.0651 6.37024 25.366 6.2616 25.6669 6.22086L26.5558 6.08506L27.4447 5.96283H27.8824H28.3063L29.1542 5.88135H29.9884H30.7953H31.5885H32.3544H33.0792C33.953 5.9017 34.825 5.9697 35.6913 6.08506C36.3541 6.17676 37.0115 6.3037 37.6606 6.46531C38.082 6.57517 38.4974 6.70662 38.9051 6.85914L39.2333 6.99494H39.3427C39.3642 7.01538 39.3784 7.04221 39.3831 7.07136C39.3878 7.10052 39.3829 7.13041 39.3689 7.15652C39.355 7.18262 39.3329 7.2035 39.306 7.216C39.279 7.22851 39.2487 7.23195 39.2196 7.22581L39.206 7.07642Z" fill="url(#paint12_linear_1_2171)"/>
<path style="mix-blend-mode:screen" d="M20.7435 0.00112714C7.83346 -0.107516 2.36312 7.66047 3.73071 13.4865L2.74605 13.9482L1.9255 14.3556L0.339099 15.2248C0.190389 15.3022 0.0787457 15.4351 0.0287337 15.5943C-0.0212783 15.7535 -0.0055616 15.9259 0.0724202 16.0735C0.150402 16.2212 0.284264 16.3321 0.444559 16.3817C0.604854 16.4314 0.778451 16.4158 0.927161 16.3383L2.45885 15.5371L3.2794 15.1161L4.14098 14.6815C6.28809 20.5075 13.2491 23.8347 24.3129 14.8173C34.392 6.58762 39.958 7.47035 40.3136 7.53825C38.864 5.33822 32.026 0.10977 20.7435 0.00112714Z" fill="url(#paint13_radial_1_2171)"/>
</g>
<defs>
<linearGradient id="paint0_linear_1_2171" x1="15.5923" y1="8.0117" x2="-2.42358" y2="14.788" gradientUnits="userSpaceOnUse">
<stop offset="0.08" stop-color="#B0E355"/>
<stop offset="0.21" stop-color="#ADE152"/>
<stop offset="0.32" stop-color="#A2DA4A"/>
<stop offset="0.42" stop-color="#91CE3B"/>
<stop offset="0.52" stop-color="#79BE27"/>
<stop offset="0.61" stop-color="#5AA90D"/>
<stop offset="0.65" stop-color="#4A9F00"/>
<stop offset="1" stop-color="#346D0A"/>
</linearGradient>
<linearGradient id="paint1_linear_1_2171" x1="35.0572" y1="19.9789" x2="-16.2582" y2="24.5665" gradientUnits="userSpaceOnUse">
<stop offset="0.08" stop-color="#B0E355"/>
<stop offset="0.21" stop-color="#ADE152"/>
<stop offset="0.32" stop-color="#A2DA4A"/>
<stop offset="0.42" stop-color="#91CE3B"/>
<stop offset="0.52" stop-color="#79BE27"/>
<stop offset="0.61" stop-color="#5AA90D"/>
<stop offset="0.65" stop-color="#4A9F00"/>
<stop offset="1" stop-color="#346D0A"/>
</linearGradient>
<linearGradient id="paint2_linear_1_2171" x1="28.7263" y1="21.0639" x2="-4.70899" y2="24.9361" gradientUnits="userSpaceOnUse">
<stop offset="0.08" stop-color="#B0E355"/>
<stop offset="0.21" stop-color="#ADE152"/>
<stop offset="0.32" stop-color="#A2DA4A"/>
<stop offset="0.42" stop-color="#91CE3B"/>
<stop offset="0.52" stop-color="#79BE27"/>
<stop offset="0.61" stop-color="#5AA90D"/>
<stop offset="0.65" stop-color="#4A9F00"/>
<stop offset="1" stop-color="#346D0A"/>
</linearGradient>
<linearGradient id="paint3_linear_1_2171" x1="32.7352" y1="16.8225" x2="1.17317" y2="21.3783" gradientUnits="userSpaceOnUse">
<stop offset="0.08" stop-color="#B0E355"/>
<stop offset="0.21" stop-color="#ADE152"/>
<stop offset="0.32" stop-color="#A2DA4A"/>
<stop offset="0.42" stop-color="#91CE3B"/>
<stop offset="0.52" stop-color="#79BE27"/>
<stop offset="0.61" stop-color="#5AA90D"/>
<stop offset="0.65" stop-color="#4A9F00"/>
<stop offset="1" stop-color="#346D0A"/>
</linearGradient>
<linearGradient id="paint4_linear_1_2171" x1="31.1642" y1="-5.01129" x2="11.4314" y2="10.2348" gradientUnits="userSpaceOnUse">
<stop offset="0.08" stop-color="#B0E355"/>
<stop offset="0.21" stop-color="#ADE152"/>
<stop offset="0.32" stop-color="#A2DA4A"/>
<stop offset="0.42" stop-color="#91CE3B"/>
<stop offset="0.52" stop-color="#79BE27"/>
<stop offset="0.61" stop-color="#5AA90D"/>
<stop offset="0.65" stop-color="#4A9F00"/>
<stop offset="1" stop-color="#346D0A"/>
</linearGradient>
<linearGradient id="paint5_linear_1_2171" x1="22.5899" y1="-5.82452" x2="6.78415" y2="10.603" gradientUnits="userSpaceOnUse">
<stop offset="0.08" stop-color="#B0E355"/>
<stop offset="0.21" stop-color="#ADE152"/>
<stop offset="0.32" stop-color="#A2DA4A"/>
<stop offset="0.42" stop-color="#91CE3B"/>
<stop offset="0.52" stop-color="#79BE27"/>
<stop offset="0.61" stop-color="#5AA90D"/>
<stop offset="0.65" stop-color="#4A9F00"/>
<stop offset="1" stop-color="#346D0A"/>
</linearGradient>
<linearGradient id="paint6_linear_1_2171" x1="41.0736" y1="-6.77129" x2="10.7073" y2="8.15335" gradientUnits="userSpaceOnUse">
<stop offset="0.08" stop-color="#B0E355"/>
<stop offset="0.21" stop-color="#ADE152"/>
<stop offset="0.32" stop-color="#A2DA4A"/>
<stop offset="0.42" stop-color="#91CE3B"/>
<stop offset="0.52" stop-color="#79BE27"/>
<stop offset="0.61" stop-color="#5AA90D"/>
<stop offset="0.65" stop-color="#4A9F00"/>
<stop offset="1" stop-color="#346D0A"/>
</linearGradient>
<linearGradient id="paint7_linear_1_2171" x1="29.5635" y1="28.375" x2="-3.86324" y2="32.245" gradientUnits="userSpaceOnUse">
<stop offset="0.08" stop-color="#B0E355"/>
<stop offset="0.21" stop-color="#ADE152"/>
<stop offset="0.32" stop-color="#A2DA4A"/>
<stop offset="0.42" stop-color="#91CE3B"/>
<stop offset="0.52" stop-color="#79BE27"/>
<stop offset="0.61" stop-color="#5AA90D"/>
<stop offset="0.65" stop-color="#4A9F00"/>
<stop offset="1" stop-color="#346D0A"/>
</linearGradient>
<linearGradient id="paint8_linear_1_2171" x1="29.4052" y1="26.9832" x2="-4.93368" y2="24.8957" gradientUnits="userSpaceOnUse">
<stop offset="0.08" stop-color="#B0E355"/>
<stop offset="0.21" stop-color="#ADE152"/>
<stop offset="0.32" stop-color="#A2DA4A"/>
<stop offset="0.42" stop-color="#91CE3B"/>
<stop offset="0.52" stop-color="#79BE27"/>
<stop offset="0.61" stop-color="#5AA90D"/>
<stop offset="0.65" stop-color="#4A9F00"/>
<stop offset="1" stop-color="#346D0A"/>
</linearGradient>
<linearGradient id="paint9_linear_1_2171" x1="29.2531" y1="25.6839" x2="-0.657933" y2="15.6671" gradientUnits="userSpaceOnUse">
<stop offset="0.08" stop-color="#B0E355"/>
<stop offset="0.21" stop-color="#ADE152"/>
<stop offset="0.32" stop-color="#A2DA4A"/>
<stop offset="0.42" stop-color="#91CE3B"/>
<stop offset="0.52" stop-color="#79BE27"/>
<stop offset="0.61" stop-color="#5AA90D"/>
<stop offset="0.65" stop-color="#4A9F00"/>
<stop offset="1" stop-color="#346D0A"/>
</linearGradient>
<linearGradient id="paint10_linear_1_2171" x1="29.0441" y1="23.8697" x2="7.46938" y2="17.4582" gradientUnits="userSpaceOnUse">
<stop offset="0.08" stop-color="#B0E355"/>
<stop offset="0.21" stop-color="#ADE152"/>
<stop offset="0.32" stop-color="#A2DA4A"/>
<stop offset="0.42" stop-color="#91CE3B"/>
<stop offset="0.52" stop-color="#79BE27"/>
<stop offset="0.61" stop-color="#5AA90D"/>
<stop offset="0.65" stop-color="#4A9F00"/>
<stop offset="1" stop-color="#346D0A"/>
</linearGradient>
<linearGradient id="paint11_linear_1_2171" x1="34.7033" y1="20.3307" x2="13.4807" y2="15.0038" gradientUnits="userSpaceOnUse">
<stop offset="0.08" stop-color="#B0E355"/>
<stop offset="0.21" stop-color="#ADE152"/>
<stop offset="0.32" stop-color="#A2DA4A"/>
<stop offset="0.42" stop-color="#91CE3B"/>
<stop offset="0.52" stop-color="#79BE27"/>
<stop offset="0.61" stop-color="#5AA90D"/>
<stop offset="0.65" stop-color="#4A9F00"/>
<stop offset="1" stop-color="#346D0A"/>
</linearGradient>
<linearGradient id="paint12_linear_1_2171" x1="56.9995" y1="3.78807" x2="0.408899" y2="16.6116" gradientUnits="userSpaceOnUse">
<stop offset="0.08" stop-color="#B0E355"/>
<stop offset="0.21" stop-color="#ADE152"/>
<stop offset="0.32" stop-color="#A2DA4A"/>
<stop offset="0.42" stop-color="#91CE3B"/>
<stop offset="0.52" stop-color="#79BE27"/>
<stop offset="0.61" stop-color="#5AA90D"/>
<stop offset="0.65" stop-color="#4A9F00"/>
<stop offset="1" stop-color="#346D0A"/>
</linearGradient>
<radialGradient id="paint13_radial_1_2171" cx="0" cy="0" r="1" gradientUnits="userSpaceOnUse" gradientTransform="translate(-38.5555 18.2189) rotate(-8.01777) scale(83.2744 82.7565)">
<stop offset="0.0390761" stop-color="#00533A"/>
<stop offset="0.556673" stop-color="#08475D"/>
<stop offset="0.666519" stop-color="#1E5161"/>
<stop offset="0.766969" stop-color="#416166"/>
<stop offset="0.846972" stop-color="#6E786E"/>
<stop offset="0.912899" stop-color="#AFB078"/>
<stop offset="0.997941" stop-color="#D3C07E"/>
</radialGradient>
</defs>
</svg>
