<svg width="54" height="76" viewBox="0 0 54 76" fill="none" xmlns="http://www.w3.org/2000/svg">
<g opacity="0.85">
<path d="M48.9307 1.14551C50.273 7.78044 41.9509 29.9068 26.3805 41.5179C17.004 48.6634 9.43582 57.8827 4.27759 68.4427V68.8278C6.72352 63.7035 31.9882 62.9037 46.7234 46.8199C61.1604 31.062 49.6168 2.62652 48.9307 1.14551Z" fill="url(#paint0_linear_1_2186)"/>
<path d="M26.3808 41.3994C41.9214 29.7883 50.2734 7.66196 48.9311 1.14551C45.9483 12.8159 21.1012 20.3394 11.3175 30.2622C-1.41929 43.1174 3.5024 65.2733 4.30777 68.5316C9.43015 57.8995 16.9899 48.6071 26.3808 41.3994Z" fill="url(#paint1_linear_1_2186)"/>
<path d="M10.0051 58.046L23.3682 57.8683L10.2437 58.9346C10.082 58.9384 9.92325 58.8919 9.78954 58.8016C9.65584 58.7113 9.55389 58.5818 9.49797 58.4311C9.47508 58.3627 9.46822 58.29 9.47789 58.2186C9.48756 58.1471 9.51352 58.0788 9.55379 58.0188C9.59406 57.9588 9.64757 57.9088 9.71026 57.8724C9.77296 57.8361 9.84317 57.8144 9.91557 57.8091L10.0051 58.046Z" fill="url(#paint2_linear_1_2186)"/>
<path d="M15.7616 51.2627L31.3022 50.9072L16.0002 52.1217C15.8366 52.1354 15.6732 52.0928 15.5375 52.0011C15.4017 51.9095 15.3018 51.7742 15.2545 51.6181C15.2307 51.5514 15.2234 51.4801 15.233 51.41C15.2426 51.3399 15.2689 51.2731 15.3098 51.2152C15.3506 51.1573 15.4048 51.1098 15.4678 51.0769C15.5308 51.0439 15.6009 51.0264 15.6721 51.0257L15.7616 51.2627Z" fill="url(#paint3_linear_1_2186)"/>
<path d="M23.0103 43.7095L38.1632 44.4797H23.249C23.0889 44.4715 22.9357 44.4124 22.8121 44.311C22.6886 44.2096 22.6012 44.0714 22.5629 43.9169C22.5496 43.8476 22.552 43.7763 22.5699 43.7081C22.5879 43.6399 22.6209 43.5766 22.6666 43.5227C22.7124 43.4687 22.7696 43.4256 22.8342 43.3965C22.8989 43.3673 22.9692 43.3528 23.0402 43.3541L23.0103 43.7095Z" fill="url(#paint4_linear_1_2186)"/>
<path d="M29.9904 37.815L46.0977 33.9644L30.3781 38.6443C30.22 38.6752 30.0561 38.6543 29.9109 38.5849C29.7657 38.5155 29.6471 38.4013 29.5728 38.2593C29.5385 38.1982 29.5182 38.1304 29.5134 38.0606C29.5087 37.9908 29.5195 37.9209 29.5451 37.8558C29.5708 37.7906 29.6107 37.732 29.6618 37.6839C29.713 37.6359 29.7743 37.5998 29.8412 37.578L29.9904 37.815Z" fill="url(#paint5_linear_1_2186)"/>
<path d="M35.9559 31.6539L48.6032 26.3223H48.7821L36.6718 32.424C36.522 32.4884 36.3546 32.4999 36.1972 32.4568C36.0399 32.4137 35.9022 32.3186 35.8068 32.1871C35.7765 32.0935 35.7745 31.9931 35.801 31.8983C35.8275 31.8036 35.8813 31.7186 35.9559 31.6539Z" fill="url(#paint6_linear_1_2186)"/>
<path d="M41.7423 22.2644L48.066 19.1543C48.066 19.1543 48.066 19.1543 48.2151 19.1543L42.5179 23.2123C42.3853 23.2961 42.2259 23.3274 42.0712 23.3C41.9165 23.2726 41.7778 23.1884 41.6827 23.0642C41.6211 23.0203 41.5709 22.9625 41.5363 22.8955C41.5017 22.8286 41.4836 22.7544 41.4836 22.6791C41.4836 22.6038 41.5017 22.5297 41.5363 22.4627C41.5709 22.3957 41.6211 22.3379 41.6827 22.294L41.7423 22.2644Z" fill="url(#paint7_linear_1_2186)"/>
<path d="M7.05198 45.3386L10.6911 57.4237C10.7148 57.4904 10.7222 57.5617 10.7126 57.6318C10.7029 57.7019 10.6766 57.7687 10.6358 57.8266C10.5949 57.8845 10.5407 57.932 10.4777 57.9649C10.4147 57.9979 10.3447 58.0154 10.2735 58.0161C10.1099 58.0298 9.94648 57.9873 9.81072 57.8956C9.67495 57.8039 9.57505 57.6687 9.52774 57.5125L6.81335 45.309C6.85135 45.2889 6.89468 45.281 6.93739 45.2863C6.98011 45.2916 7.02013 45.3099 7.05198 45.3386Z" fill="url(#paint8_linear_1_2186)"/>
<path d="M13.8825 38.6147L17.4023 50.6702C17.4202 50.739 17.4223 50.811 17.4084 50.8808C17.3945 50.9506 17.365 51.0163 17.322 51.0732C17.279 51.1301 17.2237 51.1767 17.1602 51.2095C17.0966 51.2423 17.0264 51.2604 16.9548 51.2626C16.7951 51.2749 16.636 51.2313 16.5052 51.1393C16.3745 51.0473 16.2803 50.9128 16.2389 50.759L13.6737 38.6444L13.8825 38.6147Z" fill="url(#paint9_linear_1_2186)"/>
<path d="M19.9083 33.1942L23.2789 43.9463C23.3018 44.0148 23.3087 44.0875 23.299 44.1589C23.2893 44.2303 23.2634 44.2987 23.2231 44.3586C23.1828 44.4186 23.1293 44.4687 23.0666 44.505C23.0039 44.5414 22.9337 44.563 22.8613 44.5684C22.6987 44.5768 22.5378 44.5321 22.4031 44.4412C22.2685 44.3503 22.1675 44.2181 22.1156 44.0648L19.6697 33.2238C19.6697 33.2238 19.8785 33.135 19.9083 33.1942Z" fill="url(#paint10_linear_1_2186)"/>
<path d="M26.3213 26.2039L31.3922 37.4892C31.4203 37.555 31.434 37.6259 31.4324 37.6973C31.4308 37.7687 31.414 37.839 31.3829 37.9034C31.3519 37.9678 31.3074 38.025 31.2524 38.071C31.1975 38.1171 31.1333 38.151 31.0641 38.1705C30.903 38.1941 30.7385 38.1667 30.594 38.0923C30.4494 38.0179 30.3321 37.9002 30.2587 37.7558L26.1125 26.2336C26.1363 26.2021 26.1716 26.1814 26.2108 26.1758C26.2302 26.1731 26.2499 26.1741 26.2689 26.1789C26.2878 26.1838 26.3057 26.1923 26.3213 26.2039Z" fill="url(#paint11_linear_1_2186)"/>
<path d="M33.8977 21.6128L37.0893 31.4764C37.1122 31.5448 37.1191 31.6175 37.1094 31.6889C37.0997 31.7604 37.0738 31.8287 37.0335 31.8887C36.9932 31.9486 36.9397 31.9987 36.877 32.0351C36.8143 32.0714 36.7441 32.0931 36.6717 32.0984C36.5128 32.1089 36.3546 32.0685 36.2204 31.9832C36.0862 31.8979 35.983 31.7722 35.926 31.6245L33.6591 21.6721C33.6874 21.6384 33.7258 21.6145 33.7687 21.6038C33.8115 21.5932 33.8567 21.5963 33.8977 21.6128Z" fill="url(#paint12_linear_1_2186)"/>
<path d="M39.8332 15.9552L42.8161 22.7087C42.8439 22.7764 42.8565 22.8493 42.853 22.9223C42.8496 22.9954 42.8301 23.0668 42.7961 23.1317C42.762 23.1965 42.7141 23.2532 42.6558 23.2978C42.5974 23.3424 42.53 23.3738 42.4581 23.3899C42.2979 23.4092 42.1356 23.3763 41.9957 23.2962C41.8559 23.2161 41.746 23.0931 41.6826 22.9456L39.5946 15.9552C39.6085 15.9368 39.6265 15.9219 39.6472 15.9116C39.6679 15.9014 39.6908 15.896 39.7139 15.896C39.7371 15.896 39.7599 15.9014 39.7806 15.9116C39.8013 15.9219 39.8193 15.9368 39.8332 15.9552Z" fill="url(#paint13_linear_1_2186)"/>
<path d="M0.698454 73.389V73.1521L0.96691 72.4412C1.23537 71.8488 1.5933 70.9602 2.10039 69.8938C3.49631 66.9049 5.08035 64.0063 6.84311 61.2151C9.35106 57.2868 12.1953 53.5804 15.3442 50.1371C17.1315 48.1807 19.0339 46.3311 21.0414 44.5981L22.6223 43.2652L24.2331 41.9619L27.544 39.4738C29.6531 37.781 31.6461 35.9504 33.5097 33.9941C35.2558 32.1242 36.8797 30.1455 38.3718 28.07C40.9823 24.2772 43.1725 20.2154 44.9042 15.9554C46.1948 12.9526 47.2422 9.8524 48.0362 6.68421C48.3345 5.4994 48.5433 4.58118 48.6626 3.95915L48.8415 3.0113C48.8415 2.8632 48.8415 2.80396 49.11 2.83358C49.3784 2.8632 49.3486 3.0113 49.3188 3.12978C49.289 3.24826 49.3188 3.48522 49.1696 4.10725C49.0205 4.72927 48.9012 5.70674 48.6327 6.86193C47.8582 10.0758 46.8615 13.2329 45.6499 16.3108C43.9586 20.6419 41.8088 24.7823 39.2368 28.6624C37.772 30.836 36.1679 32.9137 34.4344 34.8827C32.5891 36.9395 30.5952 38.86 28.4687 40.629L25.2472 43.1764L23.6962 44.4797L22.1749 45.8126C20.2577 47.5718 18.4356 49.4306 16.7163 51.3812C13.6908 54.8241 10.9853 58.5319 8.63282 62.4591C6.94265 65.216 5.44762 68.0862 4.15855 71.049C3.6813 72.1153 3.35318 72.9447 3.14438 73.5371L2.87593 74.2184V74.4257C2.81289 74.5573 2.72336 74.6747 2.61287 74.7706C2.50238 74.8665 2.37327 74.9388 2.23352 74.9832C2.09376 75.0277 1.94632 75.0431 1.80029 75.0288C1.65427 75.0144 1.51276 74.9705 1.38451 74.8997C1.08864 74.8039 0.839229 74.6023 0.684842 74.334C0.530456 74.0657 0.482144 73.75 0.549311 73.4483L0.698454 73.389Z" fill="url(#paint14_linear_1_2186)"/>
<path style="mix-blend-mode:screen" d="M48.9013 0.937988C45.9185 12.6084 21.0714 20.1319 11.2877 30.0547C-0.0172879 41.4289 2.57779 60.1489 3.86041 66.5172C3.20418 67.7613 2.63744 68.9165 2.19002 69.8939C1.74259 70.8714 1.32499 71.8489 1.05654 72.4413L0.788081 73.1522V73.3891C0.720913 73.6908 0.769226 74.0066 0.923612 74.2749C1.078 74.5432 1.32741 74.7448 1.62328 74.8405C1.75153 74.9113 1.89304 74.9553 2.03906 74.9696C2.18509 74.984 2.33253 74.9685 2.47229 74.9241C2.61204 74.8797 2.74115 74.8073 2.85164 74.7114C2.96213 74.6155 3.05166 74.4982 3.1147 74.3666V74.1593L3.38315 73.478C3.59195 72.8856 3.92007 72.0562 4.39732 70.9899C4.87458 69.9236 5.5308 68.5018 6.30634 66.9615C12.9581 63.1701 33.9275 60.8005 46.8432 46.7013C61.1906 31.0618 49.647 2.62634 48.961 1.02685L48.9013 0.937988Z" fill="url(#paint15_radial_1_2186)"/>
</g>
<defs>
<linearGradient id="paint0_linear_1_2186" x1="87.8053" y1="35.5063" x2="18.0207" y2="70.3389" gradientUnits="userSpaceOnUse">
<stop offset="0.08" stop-color="#B0E355"/>
<stop offset="0.21" stop-color="#ADE152"/>
<stop offset="0.32" stop-color="#A2DA4A"/>
<stop offset="0.42" stop-color="#91CE3B"/>
<stop offset="0.52" stop-color="#79BE27"/>
<stop offset="0.61" stop-color="#5AA90D"/>
<stop offset="0.65" stop-color="#4A9F00"/>
<stop offset="1" stop-color="#346D0A"/>
</linearGradient>
<linearGradient id="paint1_linear_1_2186" x1="52.8164" y1="4.20358" x2="55.1404" y2="72.6231" gradientUnits="userSpaceOnUse">
<stop offset="0.08" stop-color="#B0E355"/>
<stop offset="0.21" stop-color="#ADE152"/>
<stop offset="0.32" stop-color="#A2DA4A"/>
<stop offset="0.42" stop-color="#91CE3B"/>
<stop offset="0.52" stop-color="#79BE27"/>
<stop offset="0.61" stop-color="#5AA90D"/>
<stop offset="0.65" stop-color="#4A9F00"/>
<stop offset="1" stop-color="#346D0A"/>
</linearGradient>
<linearGradient id="paint2_linear_1_2186" x1="100.203" y1="17.7049" x2="51.7051" y2="67.6742" gradientUnits="userSpaceOnUse">
<stop offset="0.08" stop-color="#B0E355"/>
<stop offset="0.21" stop-color="#ADE152"/>
<stop offset="0.32" stop-color="#A2DA4A"/>
<stop offset="0.42" stop-color="#91CE3B"/>
<stop offset="0.52" stop-color="#79BE27"/>
<stop offset="0.61" stop-color="#5AA90D"/>
<stop offset="0.65" stop-color="#4A9F00"/>
<stop offset="1" stop-color="#346D0A"/>
</linearGradient>
<linearGradient id="paint3_linear_1_2186" x1="100.244" y1="17.74" x2="51.7329" y2="67.7122" gradientUnits="userSpaceOnUse">
<stop offset="0.08" stop-color="#B0E355"/>
<stop offset="0.21" stop-color="#ADE152"/>
<stop offset="0.32" stop-color="#A2DA4A"/>
<stop offset="0.42" stop-color="#91CE3B"/>
<stop offset="0.52" stop-color="#79BE27"/>
<stop offset="0.61" stop-color="#5AA90D"/>
<stop offset="0.65" stop-color="#4A9F00"/>
<stop offset="1" stop-color="#346D0A"/>
</linearGradient>
<linearGradient id="paint4_linear_1_2186" x1="100.306" y1="17.8096" x2="51.8072" y2="67.7789" gradientUnits="userSpaceOnUse">
<stop offset="0.08" stop-color="#B0E355"/>
<stop offset="0.21" stop-color="#ADE152"/>
<stop offset="0.32" stop-color="#A2DA4A"/>
<stop offset="0.42" stop-color="#91CE3B"/>
<stop offset="0.52" stop-color="#79BE27"/>
<stop offset="0.61" stop-color="#5AA90D"/>
<stop offset="0.65" stop-color="#4A9F00"/>
<stop offset="1" stop-color="#346D0A"/>
</linearGradient>
<linearGradient id="paint5_linear_1_2186" x1="100.104" y1="17.611" x2="51.5978" y2="67.5756" gradientUnits="userSpaceOnUse">
<stop offset="0.08" stop-color="#B0E355"/>
<stop offset="0.21" stop-color="#ADE152"/>
<stop offset="0.32" stop-color="#A2DA4A"/>
<stop offset="0.42" stop-color="#91CE3B"/>
<stop offset="0.52" stop-color="#79BE27"/>
<stop offset="0.61" stop-color="#5AA90D"/>
<stop offset="0.65" stop-color="#4A9F00"/>
<stop offset="1" stop-color="#346D0A"/>
</linearGradient>
<linearGradient id="paint6_linear_1_2186" x1="98.7243" y1="16.2641" x2="50.2183" y2="66.2287" gradientUnits="userSpaceOnUse">
<stop offset="0.08" stop-color="#B0E355"/>
<stop offset="0.21" stop-color="#ADE152"/>
<stop offset="0.32" stop-color="#A2DA4A"/>
<stop offset="0.42" stop-color="#91CE3B"/>
<stop offset="0.52" stop-color="#79BE27"/>
<stop offset="0.61" stop-color="#5AA90D"/>
<stop offset="0.65" stop-color="#4A9F00"/>
<stop offset="1" stop-color="#346D0A"/>
</linearGradient>
<linearGradient id="paint7_linear_1_2186" x1="95.9019" y1="13.5208" x2="47.3987" y2="63.4976" gradientUnits="userSpaceOnUse">
<stop offset="0.08" stop-color="#B0E355"/>
<stop offset="0.21" stop-color="#ADE152"/>
<stop offset="0.32" stop-color="#A2DA4A"/>
<stop offset="0.42" stop-color="#91CE3B"/>
<stop offset="0.52" stop-color="#79BE27"/>
<stop offset="0.61" stop-color="#5AA90D"/>
<stop offset="0.65" stop-color="#4A9F00"/>
<stop offset="1" stop-color="#346D0A"/>
</linearGradient>
<linearGradient id="paint8_linear_1_2186" x1="92.8444" y1="10.5476" x2="44.3336" y2="60.5199" gradientUnits="userSpaceOnUse">
<stop offset="0.08" stop-color="#B0E355"/>
<stop offset="0.21" stop-color="#ADE152"/>
<stop offset="0.32" stop-color="#A2DA4A"/>
<stop offset="0.42" stop-color="#91CE3B"/>
<stop offset="0.52" stop-color="#79BE27"/>
<stop offset="0.61" stop-color="#5AA90D"/>
<stop offset="0.65" stop-color="#4A9F00"/>
<stop offset="1" stop-color="#346D0A"/>
</linearGradient>
<linearGradient id="paint9_linear_1_2186" x1="92.9029" y1="10.605" x2="44.3923" y2="60.5772" gradientUnits="userSpaceOnUse">
<stop offset="0.08" stop-color="#B0E355"/>
<stop offset="0.21" stop-color="#ADE152"/>
<stop offset="0.32" stop-color="#A2DA4A"/>
<stop offset="0.42" stop-color="#91CE3B"/>
<stop offset="0.52" stop-color="#79BE27"/>
<stop offset="0.61" stop-color="#5AA90D"/>
<stop offset="0.65" stop-color="#4A9F00"/>
<stop offset="1" stop-color="#346D0A"/>
</linearGradient>
<linearGradient id="paint10_linear_1_2186" x1="92.8958" y1="10.6002" x2="44.385" y2="60.5724" gradientUnits="userSpaceOnUse">
<stop offset="0.08" stop-color="#B0E355"/>
<stop offset="0.21" stop-color="#ADE152"/>
<stop offset="0.32" stop-color="#A2DA4A"/>
<stop offset="0.42" stop-color="#91CE3B"/>
<stop offset="0.52" stop-color="#79BE27"/>
<stop offset="0.61" stop-color="#5AA90D"/>
<stop offset="0.65" stop-color="#4A9F00"/>
<stop offset="1" stop-color="#346D0A"/>
</linearGradient>
<linearGradient id="paint11_linear_1_2186" x1="93.2565" y1="10.9495" x2="44.7458" y2="60.9217" gradientUnits="userSpaceOnUse">
<stop offset="0.08" stop-color="#B0E355"/>
<stop offset="0.21" stop-color="#ADE152"/>
<stop offset="0.32" stop-color="#A2DA4A"/>
<stop offset="0.42" stop-color="#91CE3B"/>
<stop offset="0.52" stop-color="#79BE27"/>
<stop offset="0.61" stop-color="#5AA90D"/>
<stop offset="0.65" stop-color="#4A9F00"/>
<stop offset="1" stop-color="#346D0A"/>
</linearGradient>
<linearGradient id="paint12_linear_1_2186" x1="93.9599" y1="11.6263" x2="45.4445" y2="61.6061" gradientUnits="userSpaceOnUse">
<stop offset="0.08" stop-color="#B0E355"/>
<stop offset="0.21" stop-color="#ADE152"/>
<stop offset="0.32" stop-color="#A2DA4A"/>
<stop offset="0.42" stop-color="#91CE3B"/>
<stop offset="0.52" stop-color="#79BE27"/>
<stop offset="0.61" stop-color="#5AA90D"/>
<stop offset="0.65" stop-color="#4A9F00"/>
<stop offset="1" stop-color="#346D0A"/>
</linearGradient>
<linearGradient id="paint13_linear_1_2186" x1="93.2742" y1="10.9711" x2="44.7635" y2="60.9433" gradientUnits="userSpaceOnUse">
<stop offset="0.08" stop-color="#B0E355"/>
<stop offset="0.21" stop-color="#ADE152"/>
<stop offset="0.32" stop-color="#A2DA4A"/>
<stop offset="0.42" stop-color="#91CE3B"/>
<stop offset="0.52" stop-color="#79BE27"/>
<stop offset="0.61" stop-color="#5AA90D"/>
<stop offset="0.65" stop-color="#4A9F00"/>
<stop offset="1" stop-color="#346D0A"/>
</linearGradient>
<linearGradient id="paint14_linear_1_2186" x1="95.1909" y1="12.8394" x2="46.6924" y2="62.8087" gradientUnits="userSpaceOnUse">
<stop offset="0.08" stop-color="#B0E355"/>
<stop offset="0.21" stop-color="#ADE152"/>
<stop offset="0.32" stop-color="#A2DA4A"/>
<stop offset="0.42" stop-color="#91CE3B"/>
<stop offset="0.52" stop-color="#79BE27"/>
<stop offset="0.61" stop-color="#5AA90D"/>
<stop offset="0.65" stop-color="#4A9F00"/>
<stop offset="1" stop-color="#346D0A"/>
</linearGradient>
<radialGradient id="paint15_radial_1_2186" cx="0" cy="0" r="1" gradientUnits="userSpaceOnUse" gradientTransform="translate(13.7903 28.5474) rotate(-17.9222) scale(48.0323 47.7608)">
<stop offset="0.54" stop-color="#00435C"/>
<stop offset="0.58" stop-color="#08475D"/>
<stop offset="0.62" stop-color="#1E5161"/>
<stop offset="0.68" stop-color="#416166"/>
<stop offset="0.75" stop-color="#72786E"/>
<stop offset="0.83" stop-color="#B09478"/>
<stop offset="0.87" stop-color="#D3A47E"/>
</radialGradient>
</defs>
</svg>
