<svg width="34" height="34" viewBox="0 0 34 34" fill="none" xmlns="http://www.w3.org/2000/svg">
<rect width="34" height="34" rx="10" fill="white"/>
<g clip-path="url(#clip0_1_3380)">
<path d="M19.5641 7.90918C21.0875 7.90918 26.0909 16.2048 26.0909 19.3924C26.0909 23.0919 23.1688 26.091 19.5641 26.091C18.7141 26.091 17.8858 25.9239 17.1141 25.6029C16.8755 25.5037 16.7604 25.2247 16.8571 24.9798C16.9538 24.7349 17.2257 24.6168 17.4643 24.716C18.1252 24.9909 18.8346 25.1341 19.5641 25.1341C22.6538 25.1341 25.1585 22.5248 25.1585 19.3924C25.055 16.0573 20.4685 9.38859 19.5278 8.87329C18.5602 9.42082 15.5709 14.4165 14.8194 16.2472C14.716 16.4892 14.441 16.5993 14.2053 16.4932C13.9695 16.387 13.8621 16.1048 13.9656 15.8628C14.8194 13.6379 18.2352 8.02704 19.5641 7.90918ZM17.2331 22.7417C17.4906 22.7417 17.6993 22.9559 17.6993 23.2202C17.6993 23.4656 17.517 23.6987 17.2331 23.6987C16.5165 23.6987 15.9635 24.6556 14.9034 24.6556C13.8432 24.6556 13.3046 23.6987 12.5711 23.6987C11.8376 23.6986 11.3132 24.6556 10.2401 24.6556C9.49452 24.6556 8.76349 24.2805 8.04902 23.5619C7.86513 23.377 7.86213 23.074 8.04234 22.8853C8.22255 22.6966 8.51772 22.6935 8.70162 22.8784C9.25582 23.4358 9.76802 23.6987 10.2401 23.6987C10.8938 23.6987 11.4916 22.7416 12.5711 22.7417C13.6507 22.7418 14.201 23.6987 14.9009 23.6987C15.6008 23.6987 16.0896 22.7418 17.2331 22.7417ZM13.2331 19.8278C14.3558 19.8278 14.8976 20.7848 15.5687 20.7848C16.0379 20.7895 16.5479 20.5278 17.1011 19.9662C17.2841 19.7803 17.5793 19.7819 17.7604 19.9698C17.9414 20.1577 17.9398 20.4606 17.7568 20.6465C17.0413 21.3729 16.3091 21.7417 15.5596 21.7417C14.4806 21.7417 13.9724 20.7848 13.2331 20.7848C12.4939 20.7848 11.9715 21.7418 10.9034 21.7417C9.8352 21.7416 9.30779 20.7848 8.57112 20.7848C8.31365 20.7848 8.10492 20.5706 8.10492 20.3063C8.10492 20.0421 8.31365 19.8278 8.57112 19.8278C9.68709 19.8279 10.2175 20.7847 10.9009 20.7848C11.5843 20.7848 12.1104 19.8279 13.2331 19.8278ZM17.2331 17.0001C17.4906 17.0001 17.6993 17.2143 17.6993 17.4786C17.6993 17.7239 17.5025 17.957 17.2331 17.957C16.4594 17.957 15.9946 18.911 14.9034 18.914C13.8121 18.9169 13.3151 17.957 12.5711 17.957C11.8271 17.957 11.3342 18.914 10.2401 18.914C9.49449 18.914 8.76349 18.5389 8.04902 17.8203C7.86513 17.6353 7.86213 17.3324 8.04234 17.1437C8.22255 16.9549 8.51772 16.9519 8.70162 17.1368C9.25582 17.6942 9.76802 17.957 10.2401 17.957C10.9164 17.9538 11.4706 17.0001 12.5711 17.0001C13.6716 17.0001 14.2053 17.9589 14.9009 17.957C15.5965 17.9551 16.1164 17.0001 17.2331 17.0001Z" fill="#78C081"/>
</g>
<defs>
<clipPath id="clip0_1_3380">
<rect width="20" height="20" fill="white" transform="translate(7 7)"/>
</clipPath>
</defs>
</svg>
