<svg width="34" height="34" viewBox="0 0 34 34" fill="none" xmlns="http://www.w3.org/2000/svg">
<rect width="34" height="34" rx="10" fill="white"/>
<g clip-path="url(#clip0_1_3390)">
<path d="M25 27H9C7.8959 26.9989 7.00109 26.1041 7 25V9C7.00109 7.8959 7.8959 7.00109 9 7H25C26.1041 7.00109 26.9989 7.8959 27 9V25C26.9989 26.1041 26.1041 26.9989 25 27V27ZM26.3333 9C26.3333 8.26363 25.7364 7.66668 25 7.66668H9C8.26363 7.66668 7.66668 8.26363 7.66668 9V25C7.66668 25.7364 8.26363 26.3333 9 26.3333H25C25.7364 26.3333 26.3333 25.7364 26.3333 25V9Z" fill="#78C081"/>
<path d="M9.49999 23.3334C10.1443 23.3334 10.6667 23.8557 10.6667 24.5001C10.6667 25.1444 10.1443 25.6667 9.49999 25.6667C8.85566 25.6667 8.33331 25.1444 8.33331 24.5001C8.33331 23.8557 8.85566 23.3334 9.49999 23.3334ZM9.49999 25.0001C9.77613 25.0001 9.99999 24.7762 9.99999 24.5001C9.99999 24.2239 9.77613 24.0001 9.49999 24.0001C9.22386 24.0001 8.99999 24.2239 8.99999 24.5001C8.99999 24.7762 9.22386 25.0001 9.49999 25.0001Z" fill="#78C081"/>
<path d="M24.5 25.6667C23.8557 25.6667 23.3333 25.1444 23.3333 24.5001C23.3333 23.8557 23.8557 23.3334 24.5 23.3334C25.1443 23.3334 25.6667 23.8557 25.6667 24.5001C25.6667 24.8095 25.5437 25.1062 25.325 25.325C25.1062 25.5438 24.8094 25.6667 24.5 25.6667ZM24.5 24.0001C24.2239 24.0001 24 24.2239 24 24.5001C24 24.7762 24.2239 25.0001 24.5 25.0001C24.7761 25.0001 25 24.7762 25 24.5001C25 24.2239 24.7761 24.0001 24.5 24.0001Z" fill="#78C081"/>
<path d="M9.49999 10.6667C8.85566 10.6667 8.33331 10.1444 8.33331 9.50007C8.33331 8.85573 8.85566 8.33339 9.49999 8.33339C10.1443 8.33339 10.6667 8.85573 10.6667 9.50007C10.6667 10.1444 10.1443 10.6667 9.49999 10.6667ZM9.49999 9.00007C9.22386 9.00007 8.99999 9.22394 8.99999 9.50007C8.99999 9.7762 9.22386 10.0001 9.49999 10.0001C9.77613 10.0001 9.99999 9.7762 9.99999 9.50007C9.99999 9.22394 9.77613 9.00007 9.49999 9.00007Z" fill="#78C081"/>
<path d="M24.5 10.6667C23.8557 10.6667 23.3333 10.1444 23.3333 9.50007C23.3333 8.85573 23.8557 8.33339 24.5 8.33339C25.1443 8.33339 25.6667 8.85573 25.6667 9.50007C25.6667 10.1444 25.1443 10.6667 24.5 10.6667ZM24.5 9.00007C24.2239 9.00007 24 9.22394 24 9.50007C24 9.7762 24.2239 10.0001 24.5 10.0001C24.7761 10.0001 25 9.7762 25 9.50007C25 9.22394 24.7761 9.00007 24.5 9.00007Z" fill="#78C081"/>
<path d="M24.6497 21.3431L24.0497 22.3431C23.9287 22.5434 23.712 22.6661 23.478 22.6667H10.522C10.288 22.666 10.0714 22.5433 9.95032 22.3431L9.35032 21.3431C9.22673 21.1371 9.22352 20.8806 9.34184 20.6716C9.46016 20.4626 9.6818 20.3334 9.922 20.3334H24.078C24.3182 20.3334 24.5398 20.4626 24.6582 20.6716C24.7765 20.8806 24.7732 21.1371 24.6497 21.3431ZM9.922 21.0001L10.522 22.0001H23.478L24.078 21.0001H9.922Z" fill="#78C081"/>
<path d="M24.6497 18.3431L24.0497 19.3431C23.9287 19.5434 23.712 19.6661 23.478 19.6667H10.522C10.288 19.666 10.0714 19.5433 9.95032 19.3431L9.35032 18.3431C9.22673 18.1371 9.22352 17.8806 9.34184 17.6716C9.46016 17.4626 9.6818 17.3334 9.922 17.3334H24.078C24.3182 17.3334 24.5398 17.4626 24.6582 17.6716C24.7765 17.8806 24.7732 18.1371 24.6497 18.3431ZM9.922 18.0001L10.522 19.0001H23.478L24.078 18.0001H9.922Z" fill="#78C081"/>
<path d="M24.6497 15.3431L24.0497 16.3431C23.9287 16.5434 23.712 16.6661 23.478 16.6667H10.522C10.288 16.666 10.0714 16.5433 9.95032 16.3431L9.35032 15.3431C9.22673 15.1371 9.22352 14.8806 9.34184 14.6716C9.46016 14.4626 9.6818 14.3334 9.922 14.3334H24.078C24.3182 14.3334 24.5398 14.4626 24.6582 14.6716C24.7765 14.8806 24.7732 15.1371 24.6497 15.3431ZM9.922 15.0001L10.522 16.0001H23.478L24.078 15.0001H9.922Z" fill="#78C081"/>
<path d="M24.0493 13.3434C23.9284 13.5435 23.7118 13.666 23.478 13.6667H10.522C10.288 13.666 10.0714 13.5433 9.95032 13.3431L9.35032 12.3431C9.22673 12.1371 9.22352 11.8806 9.34184 11.6716C9.46016 11.4626 9.6818 11.3334 9.922 11.3334H24.078C24.3182 11.3334 24.5398 11.4626 24.6582 11.6716C24.7765 11.8806 24.7733 12.1371 24.6497 12.3431L24.0493 13.3434ZM9.922 12.0001L10.522 13.0001H23.478L24.078 12.0001H9.922Z" fill="#78C081"/>
</g>
<defs>
<clipPath id="clip0_1_3390">
<rect width="20" height="20" fill="white" transform="matrix(1 0 0 -1 7 27)"/>
</clipPath>
</defs>
</svg>
