<svg width="34" height="34" viewBox="0 0 34 34" fill="none" xmlns="http://www.w3.org/2000/svg">
<rect width="34" height="34" rx="10" fill="white"/>
<g clip-path="url(#clip0_1_11406)">
<path d="M25.3237 18.6448H8.67624C8.40847 18.6448 8.15167 18.5355 7.96234 18.3409C7.773 18.1463 7.66663 17.8824 7.66663 17.6072V11.7044C7.66692 11.4293 7.77339 11.1655 7.96266 10.971C8.15194 10.7765 8.40857 10.6671 8.67624 10.6667H25.3237C25.5914 10.6671 25.848 10.7765 26.0373 10.971C26.2265 11.1655 26.333 11.4293 26.3333 11.7044V17.6072C26.3333 17.8824 26.2269 18.1463 26.0376 18.3409C25.8482 18.5355 25.5914 18.6448 25.3237 18.6448ZM8.67624 11.4046C8.59889 11.4046 8.5247 11.4362 8.47 11.4924C8.4153 11.5486 8.38457 11.6249 8.38457 11.7044V17.6072C8.38457 17.6867 8.4153 17.7629 8.47 17.8191C8.5247 17.8754 8.59889 17.9069 8.67624 17.9069H25.3237C25.401 17.9069 25.4752 17.8754 25.5299 17.8191C25.5846 17.7629 25.6153 17.6867 25.6153 17.6072V11.7044C25.6153 11.6249 25.5846 11.5486 25.5299 11.4924C25.4752 11.4362 25.401 11.4046 25.3237 11.4046H8.67624Z" fill="#78C081"/>
<path d="M21.3185 14.1254H12.6807C12.1603 14.1246 11.6614 13.9117 11.2935 13.5334C10.9256 13.1551 10.7186 12.6423 10.718 12.1074V11.0357C10.718 10.9378 10.7558 10.844 10.8232 10.7748C10.8905 10.7056 10.9818 10.6667 11.077 10.6667C11.1722 10.6667 11.2635 10.7056 11.3308 10.7748C11.3981 10.844 11.436 10.9378 11.436 11.0357V12.1074C11.4363 12.4468 11.5677 12.7722 11.8012 13.0122C12.0347 13.2522 12.3514 13.3872 12.6816 13.3876H21.3194C21.6495 13.387 21.9659 13.2519 22.1993 13.0119C22.4326 12.7719 22.5638 12.4467 22.5642 12.1074V11.0357C22.5642 10.9378 22.602 10.844 22.6693 10.7748C22.7366 10.7056 22.8279 10.6667 22.9231 10.6667C23.0184 10.6667 23.1097 10.7056 23.177 10.7748C23.2443 10.844 23.2821 10.9378 23.2821 11.0357V12.1074C23.2815 12.6424 23.0745 13.1554 22.7063 13.5337C22.3382 13.912 21.8391 14.1248 21.3185 14.1254Z" fill="#78C081"/>
<path d="M21.5321 12.7652H12.468C12.3728 12.7652 12.2815 12.7263 12.2141 12.6571C12.1468 12.588 12.109 12.4941 12.109 12.3963C12.109 12.2984 12.1468 12.2046 12.2141 12.1354C12.2815 12.0662 12.3728 12.0273 12.468 12.0273H21.5321C21.6273 12.0273 21.7186 12.0662 21.7859 12.1354C21.8532 12.2046 21.8911 12.2984 21.8911 12.3963C21.8911 12.4941 21.8532 12.588 21.7859 12.6571C21.7186 12.7263 21.6273 12.7652 21.5321 12.7652Z" fill="#78C081"/>
<path d="M22.7997 18.6448C22.7045 18.6448 22.6132 18.606 22.5459 18.5368C22.4786 18.4676 22.4408 18.3737 22.4408 18.2759V18.1145C22.4405 17.8489 22.3377 17.5942 22.1549 17.4064C21.9722 17.2186 21.7244 17.1129 21.4659 17.1126H12.5353C12.2769 17.1129 12.0291 17.2186 11.8463 17.4064C11.6636 17.5942 11.5608 17.8489 11.5605 18.1145V18.2759C11.5605 18.3737 11.5227 18.4676 11.4553 18.5368C11.388 18.606 11.2967 18.6448 11.2015 18.6448C11.1063 18.6448 11.015 18.606 10.9477 18.5368C10.8803 18.4676 10.8425 18.3737 10.8425 18.2759V18.1145C10.8431 17.6533 11.0216 17.2111 11.3389 16.885C11.6563 16.5589 12.0865 16.3755 12.5353 16.375H21.467C21.9159 16.3755 22.3461 16.5589 22.6635 16.8851C22.9809 17.2112 23.1594 17.6535 23.1598 18.1147V18.2761C23.1598 18.3247 23.1505 18.3727 23.1323 18.4175C23.1142 18.4623 23.0877 18.503 23.0542 18.5373C23.0208 18.5715 22.9811 18.5986 22.9374 18.6171C22.8937 18.6355 22.847 18.645 22.7997 18.6448Z" fill="#78C081"/>
<path d="M10.2777 23.1758C10.1825 23.1758 10.0912 23.1369 10.0238 23.0677C9.95652 22.9985 9.9187 22.9047 9.9187 22.8068C9.9187 22.709 9.95652 22.6151 10.0238 22.546C10.0912 22.4768 10.1825 22.4379 10.2777 22.4379C10.926 22.4369 11.5474 22.1718 12.0059 21.7007C12.4643 21.2296 12.7222 20.5909 12.7232 19.9246C12.7232 19.8267 12.761 19.7329 12.8283 19.6637C12.8957 19.5945 12.987 19.5557 13.0822 19.5557C13.1774 19.5557 13.2687 19.5945 13.336 19.6637C13.4033 19.7329 13.4411 19.8267 13.4411 19.9246C13.442 21.7169 12.0225 23.1758 10.2777 23.1758Z" fill="#78C081"/>
<path d="M23.7223 23.1758C21.9775 23.1758 20.5588 21.7169 20.5588 19.9246C20.5588 19.8267 20.5967 19.7329 20.664 19.6637C20.7313 19.5945 20.8226 19.5557 20.9178 19.5557C21.013 19.5557 21.1043 19.5945 21.1716 19.6637C21.239 19.7329 21.2768 19.8267 21.2768 19.9246C21.2777 20.5909 21.5357 21.2296 21.9941 21.7007C22.4525 22.1718 23.074 22.4369 23.7223 22.4379C23.8175 22.4379 23.9088 22.4768 23.9761 22.546C24.0435 22.6151 24.0813 22.709 24.0813 22.8068C24.0813 22.9047 24.0435 22.9985 23.9761 23.0677C23.9088 23.1369 23.8175 23.1758 23.7223 23.1758Z" fill="#78C081"/>
<path d="M17.0001 23.3335C16.9049 23.3335 16.8136 23.2946 16.7463 23.2254C16.6789 23.1562 16.6411 23.0624 16.6411 22.9646V19.7671C16.6411 19.6693 16.6789 19.5754 16.7463 19.5062C16.8136 19.4371 16.9049 19.3982 17.0001 19.3982C17.0953 19.3982 17.1866 19.4371 17.2539 19.5062C17.3212 19.5754 17.3591 19.6693 17.3591 19.7671V22.9646C17.3591 23.0624 17.3212 23.1562 17.2539 23.2254C17.1866 23.2946 17.0953 23.3335 17.0001 23.3335Z" fill="#78C081"/>
</g>
<defs>
<clipPath id="clip0_1_11406">
<rect width="20" height="14" fill="white" transform="translate(7 10)"/>
</clipPath>
</defs>
</svg>
