<svg width="95" height="121" viewBox="0 0 95 121" fill="none" xmlns="http://www.w3.org/2000/svg">
<path d="M80.7359 17.9C71.8036 5.69145 58.8283 0 45.2807 0C45.2807 0 12.1109 0 2.28776 29.5274C-1.33999 40.4093 -0.533825 52.2251 3.85979 62.8224C5.50933 66.851 7.58763 70.6925 10.0592 74.2814C18.6247 86.5742 45.2807 120.178 45.2807 120.178H51.077C58.5018 109.901 77.2492 75.7524 82.8602 64.8184C89.9061 51.0788 90.9863 31.9242 80.7359 17.9ZM50.815 72.5219C45.2102 72.5227 39.731 70.8707 35.0704 67.7749C30.4098 64.6791 26.7772 60.2786 24.632 55.1298C22.4867 49.981 21.9252 44.3153 23.0185 38.8492C24.1117 33.3831 26.8106 28.3621 30.7738 24.4213C34.7371 20.4805 39.7866 17.7968 45.2837 16.7097C50.7809 15.6227 56.4788 16.181 61.6569 18.3141C66.8349 20.4472 71.2605 24.0593 74.3738 28.6936C77.4872 33.3278 79.1486 38.7761 79.1478 44.3492C79.1467 51.8207 76.1613 58.986 70.8481 64.2691C65.5349 69.5523 58.329 72.5208 50.815 72.5219Z" fill="#71D281"/>
<path d="M86.5683 18.1325C77.64 5.92393 64.6607 0.232483 51.1131 0.232483C51.1131 0.232483 17.9433 0.232483 8.12018 29.7599C4.49243 40.6418 5.29859 52.4575 9.69624 63.0549C11.3435 67.0837 13.4206 70.9254 15.8916 74.5139C24.4572 86.8147 51.1131 120.406 51.1131 120.406C51.1131 120.406 81.9127 78.2775 88.6926 65.0509C95.7385 51.3032 96.8228 32.1567 86.5683 18.1325ZM50.843 72.7544C45.2385 72.7544 39.7599 71.1018 35.0999 68.0057C30.44 64.9097 26.808 60.5091 24.6632 55.3604C22.5185 50.2118 21.9573 44.5464 23.0507 39.0807C24.1441 33.6149 26.8429 28.5943 30.8059 24.6538C34.7689 20.7132 39.818 18.0296 45.3148 16.9424C50.8116 15.8552 56.5092 16.4132 61.687 18.5458C66.8649 20.6785 71.2905 24.2899 74.4042 28.9236C77.5179 33.5572 79.1798 39.0049 79.1798 44.5777C79.2077 48.2856 78.4938 51.9621 77.0796 55.3932C75.6654 58.8242 73.5792 61.9414 70.9423 64.5634C68.3054 67.1854 65.1705 69.2599 61.72 70.666C58.2694 72.0722 54.572 72.7821 50.843 72.7544Z" fill="#8EEE9E"/>
<path d="M50.815 16.1723C44.9592 16.1723 39.2472 17.9761 34.4645 21.3358C29.6819 24.6955 26.0634 29.446 24.1067 34.934C26.295 30.1304 30.0049 26.1714 34.6694 23.6621C39.334 21.1528 44.6966 20.2313 49.9375 21.0385C55.1785 21.8457 60.0094 24.3371 63.692 28.1319C67.3746 31.9268 69.7062 36.8163 70.3305 42.0531C70.9548 47.2899 69.8373 52.5859 67.149 57.1316C64.4606 61.6774 60.3492 65.2227 55.4433 67.2258C50.5374 69.2289 45.1067 69.5796 39.9815 68.2241C34.8562 66.8687 30.3183 63.8818 27.0613 59.7199C29.7401 63.8097 33.4414 67.1374 37.8027 69.3769C42.164 71.6164 47.0355 72.6908 51.9401 72.4949C56.8446 72.299 61.6138 70.8396 65.7804 68.2595C69.947 65.6794 73.368 62.0672 75.7082 57.7769C78.0484 53.4866 79.2275 48.6653 79.1301 43.7855C79.0326 38.9057 77.6619 34.1348 75.1522 29.9403C72.6425 25.7458 69.0799 22.2715 64.8136 19.858C60.5473 17.4444 55.7235 16.1744 50.815 16.1723Z" fill="#71D281"/>
</svg>
